%FSTAX23Y23*%
%MOIN*%
%SFA1B1*%

%IPPOS*%
%ADD57C,0.005000*%
%ADD83C,0.006667*%
%LNpcb1_drawing_1-1*%
%LPD*%
G54D57*
X01484Y00053D02*
Y00093D01*
X01524*
Y00053*
X01484*
X01584D02*
Y00093D01*
X01624*
Y00053*
X01584*
X01684D02*
Y00093D01*
X01724*
Y00053*
X01684*
X01884D02*
Y00093D01*
X01924*
Y00053*
X01884*
X01984D02*
Y00093D01*
X02024*
Y00053*
X01984*
X01784D02*
Y00093D01*
X01824*
Y00053*
X01784*
X01384D02*
Y00093D01*
X01424*
Y00053*
X01384*
X01284D02*
Y00093D01*
X01324*
Y00053*
X01284*
X01484Y00154D02*
Y00194D01*
X01524*
Y00154*
X01484*
X01584D02*
Y00194D01*
X01624*
Y00154*
X01584*
X01684D02*
Y00194D01*
X01724*
Y00154*
X01684*
X01884D02*
Y00194D01*
X01924*
Y00154*
X01884*
X01984D02*
Y00194D01*
X02024*
Y00154*
X01984*
X01784D02*
Y00194D01*
X01824*
Y00154*
X01784*
X01384D02*
Y00194D01*
X01424*
Y00154*
X01384*
X01284D02*
Y00194D01*
X01324*
Y00154*
X01284*
X00941Y00111D02*
X00921Y00151D01*
X00961*
X00941Y00111*
X00803D02*
X00783Y00151D01*
X00823*
X00803Y00111*
X00665D02*
X00645Y00151D01*
X00685*
X00665Y00111*
Y00308D02*
X00645Y00348D01*
X00685*
X00665Y00308*
X00803D02*
X00783Y00348D01*
X00823*
X00803Y00308*
X00941D02*
X00921Y00348D01*
X00961*
X00941Y00308*
X01079D02*
X01059Y00348D01*
X01099*
X01079Y00308*
Y00111D02*
X01059Y00151D01*
X01099*
X01079Y00111*
X02296Y00502D02*
Y00542D01*
X02336*
Y00502*
X02296*
Y00702D02*
Y00742D01*
X02336*
Y00702*
X02296*
Y00602D02*
Y00642D01*
X02336*
Y00602*
X02296*
Y00402D02*
Y00442D01*
X02336*
Y00402*
X02296*
X02298Y01093D02*
Y01133D01*
X02338*
Y01093*
X02298*
Y00893D02*
Y00933D01*
X02338*
Y00893*
X02298*
Y00993D02*
Y01033D01*
X02338*
Y00993*
X02298*
Y01193D02*
Y01233D01*
X02338*
Y01193*
X02298*
X00143Y00123D02*
X00153Y00133D01*
X00163*
X00153Y00143*
X00163Y00153*
X00153*
X00143Y00163*
X00133Y00153*
X00123*
X00133Y00143*
X00123Y00133*
X00133*
X00143Y00123*
Y0148D02*
X00153Y0149D01*
X00163*
X00153Y015*
X00163Y0151*
X00153*
X00143Y0152*
X00133Y0151*
X00123*
X00133Y015*
X00123Y0149*
X00133*
X00143Y0148*
X02248Y00123D02*
X02258Y00133D01*
X02268*
X02258Y00143*
X02268Y00153*
X02258*
X02248Y00163*
X02238Y00153*
X02228*
X02238Y00143*
X02228Y00133*
X02238*
X02248Y00123*
Y0148D02*
X02258Y0149D01*
X02268*
X02258Y015*
X02268Y0151*
X02258*
X02248Y0152*
X02238Y0151*
X02228*
X02238Y015*
X02228Y0149*
X02238*
X02248Y0148*
X00481Y00799D02*
X00491Y00819D01*
X00481Y00839*
X00501Y00829*
X00521Y00839*
X00511Y00819*
X00521Y00799*
X00501Y00809*
X00481Y00799*
X01611Y0056D02*
Y0055D01*
X01631*
Y0056*
X01641*
Y0058*
X01631*
Y0059*
X01611*
Y0058*
X01601*
Y0056*
X01611*
X0056Y00548D02*
X0057Y00568D01*
X0056Y00588*
X0058Y00578*
X006Y00588*
X0059Y00568*
X006Y00548*
X0058Y00558*
X0056Y00548*
X00225Y00488D02*
X00235Y00508D01*
X00225Y00528*
X00245Y00518*
X00265Y00528*
X00255Y00508*
X00265Y00488*
X00245Y00498*
X00225Y00488*
X01294Y00791D02*
Y00781D01*
X01314*
Y00791*
X01324*
Y00811*
X01314*
Y00821*
X01294*
Y00811*
X01284*
Y00791*
X01294*
Y00604D02*
Y00594D01*
X01314*
Y00604*
X01324*
Y00624*
X01314*
Y00634*
X01294*
Y00624*
X01284*
Y00604*
X01294*
X01331Y00566D02*
Y00556D01*
X01351*
Y00566*
X01361*
Y00586*
X01351*
Y00596*
X01331*
Y00586*
X01321*
Y00566*
X01331*
Y0076D02*
Y0075D01*
X01351*
Y0076*
X01361*
Y0078*
X01351*
Y0079*
X01331*
Y0078*
X01321*
Y0076*
X01331*
X01744Y00559D02*
Y00549D01*
X01764*
Y00559*
X01774*
Y00579*
X01764*
Y00589*
X01744*
Y00579*
X01734*
Y00559*
X01744*
X02035Y0114D02*
Y0113D01*
X02055*
Y0114*
X02065*
Y0116*
X02055*
Y0117*
X02035*
Y0116*
X02025*
Y0114*
X02035*
X01105Y01391D02*
Y01381D01*
X01125*
Y01391*
X01135*
Y01411*
X01125*
Y01421*
X01105*
Y01411*
X01095*
Y01391*
X01105*
X00896Y01198D02*
Y01188D01*
X00916*
Y01198*
X00926*
Y01218*
X00916*
Y01228*
X00896*
Y01218*
X00886*
Y01198*
X00896*
X01452Y01023D02*
Y01013D01*
X01472*
Y01023*
X01482*
Y01043*
X01472*
Y01053*
X01452*
Y01043*
X01442*
Y01023*
X01452*
X01108Y01183D02*
Y01173D01*
X01128*
Y01183*
X01138*
Y01203*
X01128*
Y01213*
X01108*
Y01203*
X01098*
Y01183*
X01108*
X01051Y01131D02*
Y01121D01*
X01071*
Y01131*
X01081*
Y01151*
X01071*
Y01161*
X01051*
Y01151*
X01041*
Y01131*
X01051*
X00568Y00628D02*
Y00618D01*
X00588*
Y00628*
X00598*
Y00648*
X00588*
Y00658*
X00568*
Y00648*
X00558*
Y00628*
X00568*
X00617D02*
Y00618D01*
X00637*
Y00628*
X00647*
Y00648*
X00637*
Y00658*
X00617*
Y00648*
X00607*
Y00628*
X00617*
X01514Y00814D02*
Y00804D01*
X01534*
Y00814*
X01544*
Y00834*
X01534*
Y00844*
X01514*
Y00834*
X01504*
Y00814*
X01514*
X01469Y00814D02*
Y00804D01*
X01489*
Y00814*
X01499*
Y00834*
X01489*
Y00844*
X01469*
Y00834*
X01459*
Y00814*
X01469*
X0163Y0079D02*
Y0078D01*
X0165*
Y0079*
X0166*
Y0081*
X0165*
Y0082*
X0163*
Y0081*
X0162*
Y0079*
X0163*
X01708Y00676D02*
Y00666D01*
X01728*
Y00676*
X01738*
Y00696*
X01728*
Y00706*
X01708*
Y00696*
X01698*
Y00676*
X01708*
X0068Y00825D02*
Y00815D01*
X007*
Y00825*
X0071*
Y00845*
X007*
Y00855*
X0068*
Y00845*
X0067*
Y00825*
X0068*
X0063D02*
Y00815D01*
X0065*
Y00825*
X0066*
Y00845*
X0065*
Y00855*
X0063*
Y00845*
X0062*
Y00825*
X0063*
X00732D02*
Y00815D01*
X00752*
Y00825*
X00762*
Y00845*
X00752*
Y00855*
X00732*
Y00845*
X00722*
Y00825*
X00732*
X0068Y0086D02*
Y0085D01*
X007*
Y0086*
X0071*
Y0088*
X007*
Y0089*
X0068*
Y0088*
X0067*
Y0086*
X0068*
X0063D02*
Y0085D01*
X0065*
Y0086*
X0066*
Y0088*
X0065*
Y0089*
X0063*
Y0088*
X0062*
Y0086*
X0063*
X00732D02*
Y0085D01*
X00752*
Y0086*
X00762*
Y0088*
X00752*
Y0089*
X00732*
Y0088*
X00722*
Y0086*
X00732*
X00731Y00991D02*
Y00981D01*
X00751*
Y00991*
X00761*
Y01011*
X00751*
Y01021*
X00731*
Y01011*
X00721*
Y00991*
X00731*
X00629D02*
Y00981D01*
X00649*
Y00991*
X00659*
Y01011*
X00649*
Y01021*
X00629*
Y01011*
X00619*
Y00991*
X00629*
X00679D02*
Y00981D01*
X00699*
Y00991*
X00709*
Y01011*
X00699*
Y01021*
X00679*
Y01011*
X00669*
Y00991*
X00679*
X00267Y00788D02*
Y00778D01*
X00287*
Y00788*
X00297*
Y00808*
X00287*
Y00818*
X00267*
Y00808*
X00257*
Y00788*
X00267*
X00203D02*
Y00778D01*
X00223*
Y00788*
X00233*
Y00808*
X00223*
Y00818*
X00203*
Y00808*
X00193*
Y00788*
X00203*
X00973Y00641D02*
Y00631D01*
X00993*
Y00641*
X01003*
Y00661*
X00993*
Y00671*
X00973*
Y00661*
X00963*
Y00641*
X00973*
X0011Y00988D02*
Y00978D01*
X0013*
Y00988*
X0014*
Y01008*
X0013*
Y01018*
X0011*
Y01008*
X001*
Y00988*
X0011*
Y01087D02*
Y01077D01*
X0013*
Y01087*
X0014*
Y01107*
X0013*
Y01117*
X0011*
Y01107*
X001*
Y01087*
X0011*
Y01184D02*
Y01174D01*
X0013*
Y01184*
X0014*
Y01204*
X0013*
Y01214*
X0011*
Y01204*
X001*
Y01184*
X0011*
X01102Y0094D02*
Y0093D01*
X01122*
Y0094*
X01132*
Y0096*
X01122*
Y0097*
X01102*
Y0096*
X01092*
Y0094*
X01102*
X01402Y0113D02*
Y0112D01*
X01422*
Y0113*
X01432*
Y0115*
X01422*
Y0116*
X01402*
Y0115*
X01392*
Y0113*
X01402*
X01421Y00877D02*
Y00867D01*
X01441*
Y00877*
X01451*
Y00897*
X01441*
Y00907*
X01421*
Y00897*
X01411*
Y00877*
X01421*
X02014Y00796D02*
Y00786D01*
X02034*
Y00796*
X02044*
Y00816*
X02034*
Y00826*
X02014*
Y00816*
X02004*
Y00796*
X02014*
X01863D02*
Y00786D01*
X01883*
Y00796*
X01893*
Y00816*
X01883*
Y00826*
X01863*
Y00816*
X01853*
Y00796*
X01863*
X01311Y01131D02*
Y01121D01*
X01331*
Y01131*
X01341*
Y01151*
X01331*
Y01161*
X01311*
Y01151*
X01301*
Y01131*
X01311*
X01217Y00909D02*
Y00899D01*
X01237*
Y00909*
X01247*
Y00929*
X01237*
Y00939*
X01217*
Y00929*
X01207*
Y00909*
X01217*
X01304Y00857D02*
Y00847D01*
X01324*
Y00857*
X01334*
Y00877*
X01324*
Y00887*
X01304*
Y00877*
X01294*
Y00857*
X01304*
X01428Y01223D02*
Y01213D01*
X01448*
Y01223*
X01458*
Y01243*
X01448*
Y01253*
X01428*
Y01243*
X01418*
Y01223*
X01428*
X00592Y00628D02*
Y00618D01*
X00612*
Y00628*
X00622*
Y00648*
X00612*
Y00658*
X00592*
Y00648*
X00582*
Y00628*
X00592*
X01657Y00995D02*
Y00985D01*
X01677*
Y00995*
X01687*
Y01015*
X01677*
Y01025*
X01657*
Y01015*
X01647*
Y00995*
X01657*
X02075Y00462D02*
Y00452D01*
X02095*
Y00462*
X02105*
Y00482*
X02095*
Y00492*
X02075*
Y00482*
X02065*
Y00462*
X02075*
X01708Y01058D02*
Y01048D01*
X01728*
Y01058*
X01738*
Y01078*
X01728*
Y01088*
X01708*
Y01078*
X01698*
Y01058*
X01708*
X00235Y00788D02*
Y00778D01*
X00255*
Y00788*
X00265*
Y00808*
X00255*
Y00818*
X00235*
Y00808*
X00225*
Y00788*
X00235*
X01852Y0056D02*
Y0055D01*
X01872*
Y0056*
X01882*
Y0058*
X01872*
Y0059*
X01852*
Y0058*
X01842*
Y0056*
X01852*
X01572Y00474D02*
Y00464D01*
X01592*
Y00474*
X01602*
Y00494*
X01592*
Y00504*
X01572*
Y00494*
X01562*
Y00474*
X01572*
G54D83*
X01381Y01541D02*
D01*
X01381Y01542*
X01381Y01544*
X01381Y01545*
X0138Y01546*
X0138Y01548*
X01379Y01549*
X01379Y0155*
X01378Y01551*
X01377Y01553*
X01376Y01554*
X01375Y01555*
X01374Y01556*
X01373Y01557*
X01372Y01557*
X01371Y01558*
X0137Y01559*
X01369Y01559*
X01367Y0156*
X01366Y0156*
X01364Y0156*
X01363Y01561*
X01362Y01561*
X0136*
X01359Y01561*
X01358Y0156*
X01356Y0156*
X01355Y0156*
X01354Y01559*
X01352Y01559*
X01351Y01558*
X0135Y01557*
X01349Y01557*
X01348Y01556*
X01347Y01555*
X01346Y01554*
X01345Y01553*
X01344Y01551*
X01343Y0155*
X01343Y01549*
X01342Y01548*
X01342Y01546*
X01341Y01545*
X01341Y01544*
X01341Y01542*
X01341Y01541*
X01341Y01539*
X01341Y01538*
X01341Y01537*
X01342Y01535*
X01342Y01534*
X01343Y01533*
X01343Y01531*
X01344Y0153*
X01345Y01529*
X01346Y01528*
X01347Y01527*
X01348Y01526*
X01349Y01525*
X0135Y01524*
X01351Y01523*
X01352Y01523*
X01354Y01522*
X01355Y01522*
X01356Y01521*
X01358Y01521*
X01359Y01521*
X0136Y01521*
X01362*
X01363Y01521*
X01364Y01521*
X01366Y01521*
X01367Y01522*
X01369Y01522*
X0137Y01523*
X01371Y01523*
X01372Y01524*
X01373Y01525*
X01374Y01526*
X01375Y01527*
X01376Y01528*
X01377Y01529*
X01378Y0153*
X01379Y01531*
X01379Y01533*
X0138Y01534*
X0138Y01535*
X01381Y01537*
X01381Y01538*
X01381Y01539*
X01381Y01541*
X0146D02*
D01*
X0146Y01542*
X0146Y01544*
X01459Y01545*
X01459Y01546*
X01459Y01548*
X01458Y01549*
X01457Y0155*
X01457Y01551*
X01456Y01553*
X01455Y01554*
X01454Y01555*
X01453Y01556*
X01452Y01557*
X01451Y01557*
X0145Y01558*
X01449Y01559*
X01447Y01559*
X01446Y0156*
X01445Y0156*
X01443Y0156*
X01442Y01561*
X0144Y01561*
X01439*
X01438Y01561*
X01436Y0156*
X01435Y0156*
X01434Y0156*
X01432Y01559*
X01431Y01559*
X0143Y01558*
X01429Y01557*
X01427Y01557*
X01426Y01556*
X01425Y01555*
X01424Y01554*
X01424Y01553*
X01423Y01551*
X01422Y0155*
X01421Y01549*
X01421Y01548*
X01421Y01546*
X0142Y01545*
X0142Y01544*
X0142Y01542*
X0142Y01541*
X0142Y01539*
X0142Y01538*
X0142Y01537*
X01421Y01535*
X01421Y01534*
X01421Y01533*
X01422Y01531*
X01423Y0153*
X01424Y01529*
X01424Y01528*
X01425Y01527*
X01426Y01526*
X01427Y01525*
X01429Y01524*
X0143Y01523*
X01431Y01523*
X01432Y01522*
X01434Y01522*
X01435Y01521*
X01436Y01521*
X01438Y01521*
X01439Y01521*
X0144*
X01442Y01521*
X01443Y01521*
X01445Y01521*
X01446Y01522*
X01447Y01522*
X01449Y01523*
X0145Y01523*
X01451Y01524*
X01452Y01525*
X01453Y01526*
X01454Y01527*
X01455Y01528*
X01456Y01529*
X01457Y0153*
X01457Y01531*
X01458Y01533*
X01459Y01534*
X01459Y01535*
X01459Y01537*
X0146Y01538*
X0146Y01539*
X0146Y01541*
X01538D02*
D01*
X01538Y01542*
X01538Y01544*
X01538Y01545*
X01538Y01546*
X01537Y01548*
X01537Y01549*
X01536Y0155*
X01535Y01551*
X01535Y01553*
X01534Y01554*
X01533Y01555*
X01532Y01556*
X01531Y01557*
X0153Y01557*
X01528Y01558*
X01527Y01559*
X01526Y01559*
X01525Y0156*
X01523Y0156*
X01522Y0156*
X01521Y01561*
X01519Y01561*
X01518*
X01516Y01561*
X01515Y0156*
X01514Y0156*
X01512Y0156*
X01511Y01559*
X0151Y01559*
X01508Y01558*
X01507Y01557*
X01506Y01557*
X01505Y01556*
X01504Y01555*
X01503Y01554*
X01502Y01553*
X01502Y01551*
X01501Y0155*
X015Y01549*
X015Y01548*
X01499Y01546*
X01499Y01545*
X01499Y01544*
X01499Y01542*
X01498Y01541*
X01499Y01539*
X01499Y01538*
X01499Y01537*
X01499Y01535*
X015Y01534*
X015Y01533*
X01501Y01531*
X01502Y0153*
X01502Y01529*
X01503Y01528*
X01504Y01527*
X01505Y01526*
X01506Y01525*
X01507Y01524*
X01508Y01523*
X0151Y01523*
X01511Y01522*
X01512Y01522*
X01514Y01521*
X01515Y01521*
X01516Y01521*
X01518Y01521*
X01519*
X01521Y01521*
X01522Y01521*
X01523Y01521*
X01525Y01522*
X01526Y01522*
X01527Y01523*
X01528Y01523*
X0153Y01524*
X01531Y01525*
X01532Y01526*
X01533Y01527*
X01534Y01528*
X01535Y01529*
X01535Y0153*
X01536Y01531*
X01537Y01533*
X01537Y01534*
X01538Y01535*
X01538Y01537*
X01538Y01538*
X01538Y01539*
X01538Y01541*
X01617D02*
D01*
X01617Y01542*
X01617Y01544*
X01617Y01545*
X01616Y01546*
X01616Y01548*
X01616Y01549*
X01615Y0155*
X01614Y01551*
X01613Y01553*
X01613Y01554*
X01612Y01555*
X01611Y01556*
X0161Y01557*
X01608Y01557*
X01607Y01558*
X01606Y01559*
X01605Y01559*
X01603Y0156*
X01602Y0156*
X01601Y0156*
X01599Y01561*
X01598Y01561*
X01597*
X01595Y01561*
X01594Y0156*
X01592Y0156*
X01591Y0156*
X0159Y01559*
X01588Y01559*
X01587Y01558*
X01586Y01557*
X01585Y01557*
X01584Y01556*
X01583Y01555*
X01582Y01554*
X01581Y01553*
X0158Y01551*
X0158Y0155*
X01579Y01549*
X01578Y01548*
X01578Y01546*
X01578Y01545*
X01577Y01544*
X01577Y01542*
X01577Y01541*
X01577Y01539*
X01577Y01538*
X01578Y01537*
X01578Y01535*
X01578Y01534*
X01579Y01533*
X0158Y01531*
X0158Y0153*
X01581Y01529*
X01582Y01528*
X01583Y01527*
X01584Y01526*
X01585Y01525*
X01586Y01524*
X01587Y01523*
X01588Y01523*
X0159Y01522*
X01591Y01522*
X01592Y01521*
X01594Y01521*
X01595Y01521*
X01597Y01521*
X01598*
X01599Y01521*
X01601Y01521*
X01602Y01521*
X01603Y01522*
X01605Y01522*
X01606Y01523*
X01607Y01523*
X01608Y01524*
X0161Y01525*
X01611Y01526*
X01612Y01527*
X01613Y01528*
X01613Y01529*
X01614Y0153*
X01615Y01531*
X01616Y01533*
X01616Y01534*
X01616Y01535*
X01617Y01537*
X01617Y01538*
X01617Y01539*
X01617Y01541*
X01696D02*
D01*
X01696Y01542*
X01696Y01544*
X01696Y01545*
X01695Y01546*
X01695Y01548*
X01694Y01549*
X01694Y0155*
X01693Y01551*
X01692Y01553*
X01691Y01554*
X0169Y01555*
X01689Y01556*
X01688Y01557*
X01687Y01557*
X01686Y01558*
X01685Y01559*
X01683Y01559*
X01682Y0156*
X01681Y0156*
X01679Y0156*
X01678Y01561*
X01677Y01561*
X01675*
X01674Y01561*
X01673Y0156*
X01671Y0156*
X0167Y0156*
X01668Y01559*
X01667Y01559*
X01666Y01558*
X01665Y01557*
X01664Y01557*
X01663Y01556*
X01662Y01555*
X01661Y01554*
X0166Y01553*
X01659Y01551*
X01658Y0155*
X01658Y01549*
X01657Y01548*
X01657Y01546*
X01656Y01545*
X01656Y01544*
X01656Y01542*
X01656Y01541*
X01656Y01539*
X01656Y01538*
X01656Y01537*
X01657Y01535*
X01657Y01534*
X01658Y01533*
X01658Y01531*
X01659Y0153*
X0166Y01529*
X01661Y01528*
X01662Y01527*
X01663Y01526*
X01664Y01525*
X01665Y01524*
X01666Y01523*
X01667Y01523*
X01668Y01522*
X0167Y01522*
X01671Y01521*
X01673Y01521*
X01674Y01521*
X01675Y01521*
X01677*
X01678Y01521*
X01679Y01521*
X01681Y01521*
X01682Y01522*
X01683Y01522*
X01685Y01523*
X01686Y01523*
X01687Y01524*
X01688Y01525*
X01689Y01526*
X0169Y01527*
X01691Y01528*
X01692Y01529*
X01693Y0153*
X01694Y01531*
X01694Y01533*
X01695Y01534*
X01695Y01535*
X01696Y01537*
X01696Y01538*
X01696Y01539*
X01696Y01541*
M02*