%FSTAX23Y23*%
%MOIN*%
%SFA1B1*%

%IPPOS*%
%ADD23C,0.050000*%
%ADD24C,0.010000*%
%ADD27C,0.009842*%
%ADD28C,0.019685*%
%ADD29C,0.060000*%
%ADD30R,0.060000X0.060000*%
%ADD31C,0.050000*%
%ADD32R,0.050000X0.050000*%
%ADD33C,0.078740*%
%ADD34R,0.078740X0.078740*%
%ADD35R,0.060000X0.060000*%
%ADD36C,0.271654*%
%ADD37C,0.039370*%
%ADD38C,0.031496*%
%LNpcb1_copper_signal_bot-1*%
%LPD*%
G36*
X02179Y01628D02*
X02162Y01618D01*
X02144Y01603*
X02129Y01585*
X02117Y01566*
X02108Y01545*
X02103Y01522*
X02102Y01507*
X02248*
Y015*
X02255*
Y01354*
X0227Y01355*
X02293Y0136*
X02314Y01369*
X02334Y01381*
X02351Y01396*
X02366Y01414*
X02376Y0143*
X02381Y01429*
Y00214*
X02376Y00213*
X02366Y00229*
X02351Y00247*
X02334Y00262*
X02314Y00274*
X02293Y00282*
X0227Y00288*
X02255Y00289*
Y00143*
X02248*
Y00135*
X02102*
X02103Y0012*
X02108Y00098*
X02117Y00077*
X02129Y00057*
X02144Y0004*
X02162Y00025*
X02178Y00015*
X02177Y0001*
X00214Y0001*
X00212Y00015*
X00229Y00025*
X00247Y0004*
X00262Y00057*
X00274Y00077*
X00282Y00098*
X00288Y0012*
X00289Y00135*
X00143*
Y00143*
X00135*
Y00289*
X0012Y00288*
X00098Y00282*
X00077Y00274*
X00057Y00262*
X0004Y00247*
X00025Y00229*
X00015Y00213*
X0001Y00214*
Y01429*
X00015Y0143*
X00025Y01414*
X0004Y01396*
X00057Y01381*
X00077Y01369*
X00098Y0136*
X0012Y01355*
X00135Y01354*
Y015*
X00143*
Y01507*
X00289*
X00288Y01522*
X00282Y01545*
X00274Y01566*
X00262Y01585*
X00247Y01603*
X00229Y01618*
X00213Y01628*
X00214Y01633*
X02177Y01633*
X02179Y01628*
G37*
%LNpcb1_copper_signal_bot-2*%
%LPC*%
G36*
X01369Y01575D02*
Y01549D01*
X01395*
X01395Y0155*
X01392Y01558*
X01386Y01566*
X01379Y01571*
X0137Y01575*
X01369Y01575*
G37*
G36*
X01353Y01575D02*
X01352Y01575D01*
X01343Y01571*
X01336Y01566*
X0133Y01558*
X01327Y0155*
X01327Y01549*
X01353*
Y01575*
G37*
G36*
X01709Y01574D02*
X01643D01*
Y01508*
X01709*
Y01574*
G37*
G36*
X01518Y01574D02*
X0151Y01573D01*
X01502Y0157*
X01495Y01564*
X0149Y01557*
X01486Y01549*
X01485Y01541*
X01486Y01532*
X0149Y01524*
X01495Y01517*
X01502Y01512*
X0151Y01509*
X01518Y01508*
X01527Y01509*
X01535Y01512*
X01542Y01517*
X01547Y01524*
X01551Y01532*
X01552Y01541*
X01551Y01549*
X01547Y01557*
X01542Y01564*
X01535Y0157*
X01527Y01573*
X01518Y01574*
G37*
G36*
X0144D02*
X01431Y01573D01*
X01423Y0157*
X01416Y01564*
X01411Y01557*
X01408Y01549*
X01407Y01541*
X01408Y01532*
X01411Y01524*
X01416Y01517*
X01423Y01512*
X01431Y01509*
X0144Y01508*
X01448Y01509*
X01456Y01512*
X01463Y01517*
X01468Y01524*
X01472Y01532*
X01473Y01541*
X01472Y01549*
X01468Y01557*
X01463Y01564*
X01456Y0157*
X01448Y01573*
X0144Y01574*
G37*
G36*
X01395Y01533D02*
X01369D01*
Y01507*
X0137Y01507*
X01379Y0151*
X01386Y01516*
X01392Y01523*
X01395Y01532*
X01395Y01533*
G37*
G36*
X01353D02*
X01327D01*
X01327Y01532*
X0133Y01523*
X01336Y01516*
X01343Y0151*
X01352Y01507*
X01353Y01507*
Y01533*
G37*
G36*
X01597Y01574D02*
X01589Y01573D01*
X01581Y0157*
X01574Y01564*
X01572Y01562*
X01567Y01555*
X01563Y01547*
X01562Y01539*
X01563Y0153*
X01567Y01522*
X01572Y01515*
X01579Y0151*
X01587Y01507*
X01595Y01506*
X01604Y01507*
X01612Y0151*
X01619Y01515*
X01621Y01517*
X01621Y01517*
X01626Y01524*
X01629Y01532*
X0163Y01541*
X01629Y01549*
X01626Y01557*
X01621Y01564*
X01614Y0157*
X01606Y01573*
X01597Y01574*
G37*
G36*
X0224Y01492D02*
X02102D01*
X02103Y01477*
X02108Y01454*
X02117Y01433*
X02129Y01414*
X02144Y01396*
X02162Y01381*
X02181Y01369*
X02202Y0136*
X02225Y01355*
X0224Y01354*
Y01492*
G37*
G36*
X00289D02*
X00151D01*
Y01354*
X00166Y01355*
X00188Y0136*
X0021Y01369*
X00229Y01381*
X00247Y01396*
X00262Y01414*
X00274Y01433*
X00282Y01454*
X00288Y01477*
X00289Y01492*
G37*
G36*
X02326Y01252D02*
Y01221D01*
X02358*
X02357Y01223*
X02353Y01233*
X02347Y01241*
X02338Y01248*
X02329Y01252*
X02326Y01252*
G37*
G36*
X0231D02*
X02308Y01252D01*
X02298Y01248*
X0229Y01241*
X02283Y01233*
X02279Y01223*
X02279Y01221*
X0231*
Y01252*
G37*
G36*
X02358Y01205D02*
X02326D01*
Y01173*
X02329Y01174*
X02338Y01178*
X02347Y01184*
X02353Y01193*
X02357Y01202*
X02358Y01205*
G37*
G36*
X0231D02*
X02279D01*
X02279Y01202*
X02283Y01193*
X0229Y01184*
X02298Y01178*
X02308Y01174*
X0231Y01173*
Y01205*
G37*
G36*
X02045Y01183D02*
X01972D01*
X01963Y01182*
X01955Y01179*
X01949Y01173*
X01877Y01101*
X01731*
X01668Y01164*
X01661Y0117*
X01653Y01173*
X01645Y01174*
X00754*
X00746Y01173*
X00738Y0117*
X00731Y01164*
X00666Y01099*
X00661Y01092*
X00657Y01084*
X00656Y01076*
Y01029*
X00619*
X00619*
X00616Y01028*
X00614Y01026*
X00596Y01008*
X00594Y01006*
X00593Y01003*
Y00817*
X00594Y00814*
X00596Y00811*
X00616Y00791*
X00618Y00789*
X00621Y00789*
X00761*
X00764Y00789*
X00767Y00791*
Y00791*
X00787Y00811*
X00787*
X00789Y00814*
X00789Y00817*
X00789Y01002*
X00789Y01005*
X00787Y01007*
X00768Y01026*
X00765Y01028*
X00762Y01029*
X00722Y01029*
Y01062*
X00768Y01108*
X01379*
Y01063*
X01291Y00974*
X01286Y00967*
X01282Y00959*
X01281Y00951*
Y00867*
X01282Y00858*
X01286Y0085*
X01291Y00843*
X01298Y00838*
X01306Y00835*
X01314Y00834*
X01323Y00835*
X01331Y00838*
X01338Y00843*
X01343Y0085*
X01346Y00858*
X01347Y00867*
Y00937*
X01436Y01025*
X01441Y01032*
X01444Y0104*
X01445Y01049*
Y01108*
X01631*
X01684Y01054*
Y00686*
X01686Y00677*
X01689Y00669*
X01694Y00662*
X01701Y00657*
X01709Y00654*
X01718Y00653*
X01726Y00654*
X01734Y00657*
X01741Y00662*
X01746Y00669*
X0175Y00677*
X01751Y00686*
Y01035*
X01877*
X01996Y00916*
X01919Y00839*
X01873*
X01865Y00838*
X01857Y00835*
X0185Y00829*
X01845Y00822*
X01841Y00814*
X0184Y00806*
X01841Y00797*
X01845Y00789*
X0185Y00782*
X01857Y00777*
X01865Y00774*
X01873Y00773*
X01933*
X01941Y00774*
X01949Y00777*
X01956Y00782*
X02056Y00883*
X0228*
Y00875*
X02284*
Y0076*
X02278*
Y00684*
X02354*
Y0076*
X0235*
Y00875*
X02356*
Y00951*
X0228*
Y00949*
X02056*
X01937Y01068*
X01986Y01117*
X02045*
X02054Y01118*
X02062Y01121*
X02069Y01126*
X02074Y01133*
X02077Y01141*
X02078Y0115*
X02077Y01158*
X02074Y01166*
X02069Y01173*
X02062Y01179*
X02054Y01182*
X02045Y01183*
G37*
G36*
X02318Y01151D02*
X02308Y0115D01*
X02299Y01146*
X02291Y0114*
X02285Y01132*
X02281Y01123*
X0228Y01113*
X02281Y01103*
X02285Y01094*
X02291Y01086*
X02299Y0108*
X02308Y01076*
X02318Y01075*
X02328Y01076*
X02337Y0108*
X02345Y01086*
X02351Y01094*
X02355Y01103*
X02356Y01113*
X02355Y01123*
X02351Y01132*
X02345Y0114*
X02337Y01146*
X02328Y0115*
X02318Y01151*
G37*
G36*
Y01051D02*
X02308Y0105D01*
X02299Y01046*
X02291Y0104*
X02285Y01032*
X02281Y01023*
X0228Y01013*
X02281Y01003*
X02285Y00994*
X02291Y00986*
X02299Y0098*
X02308Y00976*
X02318Y00975*
X02328Y00976*
X02337Y0098*
X02345Y00986*
X02351Y00994*
X02355Y01003*
X02356Y01013*
X02355Y01023*
X02351Y01032*
X02345Y0104*
X02337Y01046*
X02328Y0105*
X02318Y01051*
G37*
G36*
X01115Y01434D02*
X00607D01*
X00599Y01433*
X00591Y0143*
X00584Y01424*
X00478Y01318*
X00473Y01311*
X00469Y01303*
X00468Y01295*
Y00819*
X00469Y0081*
X00473Y00802*
X00478Y00795*
X00485Y0079*
X00493Y00787*
X00501Y00786*
X0051Y00787*
X00518Y0079*
X00525Y00795*
X0053Y00802*
X00533Y0081*
X00535Y00819*
Y01281*
X00621Y01368*
X01115*
X01124Y01369*
X01132Y01372*
X01139Y01377*
X01144Y01384*
X01147Y01392*
X01148Y01401*
X01147Y01409*
X01144Y01417*
X01139Y01424*
X01132Y0143*
X01124Y01433*
X01115Y01434*
G37*
G36*
X02316Y0066D02*
X02306Y00659D01*
X02297Y00655*
X02289Y00649*
X02283Y00641*
X02279Y00632*
X02278Y00622*
X02279Y00612*
X02283Y00603*
X02289Y00595*
X02297Y00589*
X02306Y00585*
X02316Y00584*
X02326Y00585*
X02335Y00589*
X02343Y00595*
X02349Y00603*
X02353Y00612*
X02354Y00622*
X02353Y00632*
X02349Y00641*
X02343Y00649*
X02335Y00655*
X02326Y00659*
X02316Y0066*
G37*
G36*
X01304Y00825D02*
X01295Y00823D01*
X01287Y00818*
X01282Y0081*
X0128Y00801*
X01282Y00792*
X01287Y00784*
X01291Y00781*
Y00633*
X01287Y00631*
X01282Y00623*
X0128Y00614*
X01282Y00605*
X01287Y00597*
X01295Y00592*
X01304Y0059*
X01313Y00592*
X01321Y00596*
X01324Y00593*
X01319Y00585*
X01317Y00576*
X01319Y00567*
X01324Y00559*
X01332Y00554*
X01341Y00552*
X0135Y00554*
X01358Y00559*
X01363Y00567*
X01365Y00576*
X01363Y00585*
X01358Y00593*
X01354Y00595*
Y00751*
X01358Y00753*
X01363Y00761*
X01365Y0077*
X01363Y00779*
X01358Y00787*
X0135Y00792*
X01341Y00794*
X01332Y00792*
X01327Y00796*
X01328Y00801*
X01326Y0081*
X01321Y00818*
X01313Y00823*
X01304Y00825*
G37*
G36*
X01479Y00848D02*
X0147Y00846D01*
X01462Y00841*
X01457Y00833*
X01455Y00824*
X01457Y00815*
X01462Y00807*
X01466Y00804*
Y00712*
X01467Y00707*
X0147Y00703*
X01598Y00575*
X01597Y0057*
X01598Y00561*
X01604Y00553*
X01612Y00548*
X01621Y00546*
X0163Y00548*
X01638Y00553*
X01643Y00561*
X01645Y0057*
X01643Y0058*
X01638Y00587*
X0163Y00593*
X01621Y00594*
X01616Y00593*
X01492Y00717*
Y00804*
X01496Y00807*
X01498Y0081*
X01504*
X01507Y00807*
X01511Y00804*
Y0073*
X01512Y00725*
X01514Y00721*
X01676Y0056*
X0168Y00557*
X01685Y00556*
X01735*
X01737Y00552*
X01745Y00547*
X01754Y00545*
X01763Y00547*
X01771Y00552*
X01776Y0056*
X01778Y00569*
X01776Y00578*
X01771Y00586*
X01763Y00591*
X01754Y00593*
X01745Y00591*
X01737Y00586*
X01735Y00582*
X01691*
X01537Y00736*
Y00804*
X01541Y00807*
X01546Y00814*
X01548Y00824*
X01546Y00833*
X01541Y00841*
X01533Y00846*
X01524Y00848*
X01515Y00846*
X01507Y00841*
X01505Y00837*
X01499*
X01496Y00841*
X01488Y00846*
X01479Y00848*
G37*
G36*
X02316Y0056D02*
X02306Y00559D01*
X02297Y00555*
X02289Y00549*
X02283Y00541*
X02279Y00532*
X02278Y00522*
X02279Y00512*
X02283Y00503*
X02289Y00495*
X02297Y00489*
X02306Y00485*
X02316Y00484*
X02326Y00485*
X02335Y00489*
X02343Y00495*
X02349Y00503*
X02353Y00512*
X02354Y00522*
X02353Y00532*
X02349Y00541*
X02343Y00549*
X02335Y00555*
X02326Y00559*
X02316Y0056*
G37*
G36*
X0058Y00601D02*
X00572Y006D01*
X00564Y00597*
X00557Y00591*
X00506Y00541*
X00245*
X00237Y0054*
X00229Y00537*
X00222Y00531*
X00217Y00524*
X00213Y00516*
X00212Y00508*
X00213Y00499*
X00217Y00491*
X00222Y00484*
X00229Y00479*
X00237Y00476*
X00245Y00475*
X0052*
X00529Y00476*
X00537Y00479*
X00544Y00484*
X00604Y00544*
X00609Y00551*
X00612Y00559*
X00613Y00568*
X00612Y00576*
X00609Y00584*
X00604Y00591*
X00597Y00597*
X00589Y006*
X0058Y00601*
G37*
G36*
X02324Y00461D02*
Y0043D01*
X02356*
X02355Y00432*
X02351Y00442*
X02345Y0045*
X02336Y00457*
X02327Y00461*
X02324Y00461*
G37*
G36*
X02308D02*
X02306Y00461D01*
X02296Y00457*
X02288Y0045*
X02281Y00442*
X02277Y00432*
X02277Y0043*
X02308*
Y00461*
G37*
G36*
Y00414D02*
X02277D01*
X02277Y00411*
X02281Y00402*
X02288Y00393*
X02296Y00387*
X02306Y00383*
X02308Y00382*
Y00414*
G37*
G36*
X02356D02*
X02324D01*
Y00382*
X02327Y00383*
X02336Y00387*
X02345Y00393*
X02351Y00402*
X02355Y00411*
X02356Y00414*
G37*
G36*
X01086Y00377D02*
Y00336D01*
X01127*
X01127Y00341*
X01122Y00353*
X01114Y00363*
X01104Y00371*
X01092Y00376*
X01086Y00377*
G37*
G36*
X01071D02*
X01066Y00376D01*
X01054Y00371*
X01043Y00363*
X01035Y00353*
X01031Y00341*
X0103Y00336*
X01071*
Y00377*
G37*
G36*
X01127Y0032D02*
X01086D01*
Y00279*
X01092Y0028*
X01104Y00285*
X01114Y00293*
X01122Y00303*
X01127Y00315*
X01127Y0032*
G37*
G36*
X01071D02*
X0103D01*
X01031Y00315*
X01035Y00303*
X01043Y00293*
X01054Y00285*
X01066Y0028*
X01071Y00279*
Y0032*
G37*
G36*
X0224Y00289D02*
X02225Y00288D01*
X02202Y00282*
X02181Y00274*
X02162Y00262*
X02144Y00247*
X02129Y00229*
X02117Y0021*
X02108Y00188*
X02103Y00166*
X02102Y00151*
X0224*
Y00289*
G37*
G36*
X00151D02*
Y00151D01*
X00289*
X00288Y00166*
X00282Y00188*
X00274Y0021*
X00262Y00229*
X00247Y00247*
X00229Y00262*
X0021Y00274*
X00188Y00282*
X00166Y00288*
X00151Y00289*
G37*
G36*
X01086Y0018D02*
Y00139D01*
X01127*
X01127Y00144*
X01122Y00156*
X01114Y00166*
X01104Y00174*
X01092Y00179*
X01086Y0018*
G37*
G36*
X01071D02*
X01066Y00179D01*
X01054Y00174*
X01043Y00166*
X01035Y00156*
X01031Y00144*
X0103Y00139*
X01071*
Y0018*
G37*
G36*
X02042Y00212D02*
X01966D01*
Y00136*
X02042*
Y00212*
G37*
G36*
X01904Y00212D02*
X01894Y00211D01*
X01885Y00207*
X01877Y00201*
X01871Y00193*
X01867Y00184*
X01866Y00174*
X01867Y00164*
X01871Y00155*
X01877Y00147*
X01885Y00141*
X01894Y00137*
X01904Y00136*
X01914Y00137*
X01923Y00141*
X01931Y00147*
X01937Y00155*
X01941Y00164*
X01942Y00174*
X01941Y00184*
X01937Y00193*
X01931Y00201*
X01923Y00207*
X01914Y00211*
X01904Y00212*
G37*
G36*
X01804D02*
X01794Y00211D01*
X01785Y00207*
X01777Y00201*
X01771Y00193*
X01767Y00184*
X01766Y00174*
X01767Y00164*
X01771Y00155*
X01777Y00147*
X01785Y00141*
X01794Y00137*
X01804Y00136*
X01814Y00137*
X01823Y00141*
X01831Y00147*
X01837Y00155*
X01841Y00164*
X01842Y00174*
X01841Y00184*
X01837Y00193*
X01831Y00201*
X01823Y00207*
X01814Y00211*
X01804Y00212*
G37*
G36*
X01704D02*
X01694Y00211D01*
X01685Y00207*
X01677Y00201*
X01671Y00193*
X01667Y00184*
X01666Y00174*
X01667Y00164*
X01671Y00155*
X01677Y00147*
X01685Y00141*
X01694Y00137*
X01704Y00136*
X01714Y00137*
X01723Y00141*
X01731Y00147*
X01737Y00155*
X01741Y00164*
X01742Y00174*
X01741Y00184*
X01737Y00193*
X01731Y00201*
X01723Y00207*
X01714Y00211*
X01704Y00212*
G37*
G36*
X01604D02*
X01594Y00211D01*
X01585Y00207*
X01577Y00201*
X01571Y00193*
X01567Y00184*
X01566Y00174*
X01567Y00164*
X01571Y00155*
X01577Y00147*
X01585Y00141*
X01594Y00137*
X01604Y00136*
X01614Y00137*
X01623Y00141*
X01631Y00147*
X01637Y00155*
X01641Y00164*
X01642Y00174*
X01641Y00184*
X01637Y00193*
X01631Y00201*
X01623Y00207*
X01614Y00211*
X01604Y00212*
G37*
G36*
X01504D02*
X01494Y00211D01*
X01485Y00207*
X01477Y00201*
X01471Y00193*
X01467Y00184*
X01466Y00174*
X01467Y00164*
X01471Y00155*
X01477Y00147*
X01485Y00141*
X01494Y00137*
X01504Y00136*
X01514Y00137*
X01523Y00141*
X01531Y00147*
X01537Y00155*
X01541Y00164*
X01542Y00174*
X01541Y00184*
X01537Y00193*
X01531Y00201*
X01523Y00207*
X01514Y00211*
X01504Y00212*
G37*
G36*
X01404D02*
X01394Y00211D01*
X01385Y00207*
X01377Y00201*
X01371Y00193*
X01367Y00184*
X01366Y00174*
X01367Y00164*
X01371Y00155*
X01377Y00147*
X01385Y00141*
X01394Y00137*
X01404Y00136*
X01414Y00137*
X01423Y00141*
X01431Y00147*
X01437Y00155*
X01441Y00164*
X01442Y00174*
X01441Y00184*
X01437Y00193*
X01431Y00201*
X01423Y00207*
X01414Y00211*
X01404Y00212*
G37*
G36*
X01304D02*
X01294Y00211D01*
X01285Y00207*
X01277Y00201*
X01271Y00193*
X01267Y00184*
X01266Y00174*
X01267Y00164*
X01271Y00155*
X01277Y00147*
X01285Y00141*
X01294Y00137*
X01304Y00136*
X01314Y00137*
X01323Y00141*
X01331Y00147*
X01337Y00155*
X01341Y00164*
X01342Y00174*
X01341Y00184*
X01337Y00193*
X01331Y00201*
X01323Y00207*
X01314Y00211*
X01304Y00212*
G37*
G36*
X00712Y00375D02*
X00618D01*
Y00281*
X00632*
Y00178*
X00618*
Y00084*
X00712*
Y00178*
X00698*
Y00281*
X00712*
Y00375*
G37*
G36*
X00941Y00376D02*
X00928Y00374D01*
X00917Y00369*
X00907Y00362*
X009Y00352*
X00895Y0034*
X00893Y00328*
X00895Y00316*
X009Y00304*
X00907Y00294*
X00917Y00287*
X00923Y00284*
Y00175*
X00917Y00172*
X00907Y00165*
X009Y00155*
X00895Y00143*
X00893Y00131*
X00895Y00119*
X009Y00107*
X00907Y00097*
X00917Y0009*
X00928Y00085*
X00941Y00083*
X00953Y00085*
X00965Y0009*
X00975Y00097*
X00982Y00107*
X00987Y00119*
X00988Y00131*
X00987Y00143*
X00982Y00155*
X00975Y00165*
X00965Y00172*
X00959Y00175*
Y00284*
X00965Y00287*
X00975Y00294*
X00982Y00304*
X00987Y00316*
X00988Y00328*
X00987Y0034*
X00982Y00352*
X00975Y00362*
X00965Y00369*
X00953Y00374*
X00941Y00376*
G37*
G36*
X00803D02*
X00791Y00374D01*
X00779Y00369*
X00769Y00362*
X00762Y00352*
X00757Y0034*
X00755Y00328*
X00757Y00316*
X00762Y00304*
X00769Y00294*
X00779Y00287*
X00785Y00284*
Y00175*
X00779Y00172*
X00769Y00165*
X00762Y00155*
X00757Y00143*
X00755Y00131*
X00757Y00119*
X00762Y00107*
X00769Y00097*
X00779Y0009*
X00791Y00085*
X00803Y00083*
X00815Y00085*
X00827Y0009*
X00837Y00097*
X00844Y00107*
X00849Y00119*
X00851Y00131*
X00849Y00143*
X00844Y00155*
X00837Y00165*
X00827Y00172*
X00821Y00175*
Y00284*
X00827Y00287*
X00837Y00294*
X00844Y00304*
X00849Y00316*
X00851Y00328*
X00849Y0034*
X00844Y00352*
X00837Y00362*
X00827Y00369*
X00815Y00374*
X00803Y00376*
G37*
G36*
X01127Y00123D02*
X01086D01*
Y00082*
X01092Y00083*
X01104Y00088*
X01114Y00096*
X01122Y00106*
X01127Y00118*
X01127Y00123*
G37*
G36*
X01071D02*
X0103D01*
X01031Y00118*
X01035Y00106*
X01043Y00096*
X01054Y00088*
X01066Y00083*
X01071Y00082*
Y00123*
G37*
G36*
X02042Y00111D02*
X01966D01*
Y00035*
X02042*
Y00111*
G37*
G36*
X01904Y00111D02*
X01894Y0011D01*
X01885Y00106*
X01877Y001*
X01871Y00092*
X01867Y00083*
X01866Y00073*
X01867Y00063*
X01871Y00054*
X01877Y00046*
X01885Y0004*
X01894Y00036*
X01904Y00035*
X01914Y00036*
X01923Y0004*
X01931Y00046*
X01937Y00054*
X01941Y00063*
X01942Y00073*
X01941Y00083*
X01937Y00092*
X01931Y001*
X01923Y00106*
X01914Y0011*
X01904Y00111*
G37*
G36*
X01804D02*
X01794Y0011D01*
X01785Y00106*
X01777Y001*
X01771Y00092*
X01767Y00083*
X01766Y00073*
X01767Y00063*
X01771Y00054*
X01777Y00046*
X01785Y0004*
X01794Y00036*
X01804Y00035*
X01814Y00036*
X01823Y0004*
X01831Y00046*
X01837Y00054*
X01841Y00063*
X01842Y00073*
X01841Y00083*
X01837Y00092*
X01831Y001*
X01823Y00106*
X01814Y0011*
X01804Y00111*
G37*
G36*
X01704D02*
X01694Y0011D01*
X01685Y00106*
X01677Y001*
X01671Y00092*
X01667Y00083*
X01666Y00073*
X01667Y00063*
X01671Y00054*
X01677Y00046*
X01685Y0004*
X01694Y00036*
X01704Y00035*
X01714Y00036*
X01723Y0004*
X01731Y00046*
X01737Y00054*
X01741Y00063*
X01742Y00073*
X01741Y00083*
X01737Y00092*
X01731Y001*
X01723Y00106*
X01714Y0011*
X01704Y00111*
G37*
G36*
X01604D02*
X01594Y0011D01*
X01585Y00106*
X01577Y001*
X01571Y00092*
X01567Y00083*
X01566Y00073*
X01567Y00063*
X01571Y00054*
X01577Y00046*
X01585Y0004*
X01594Y00036*
X01604Y00035*
X01614Y00036*
X01623Y0004*
X01631Y00046*
X01637Y00054*
X01641Y00063*
X01642Y00073*
X01641Y00083*
X01637Y00092*
X01631Y001*
X01623Y00106*
X01614Y0011*
X01604Y00111*
G37*
G36*
X01504D02*
X01494Y0011D01*
X01485Y00106*
X01477Y001*
X01471Y00092*
X01467Y00083*
X01466Y00073*
X01467Y00063*
X01471Y00054*
X01477Y00046*
X01485Y0004*
X01494Y00036*
X01504Y00035*
X01514Y00036*
X01523Y0004*
X01531Y00046*
X01537Y00054*
X01541Y00063*
X01542Y00073*
X01541Y00083*
X01537Y00092*
X01531Y001*
X01523Y00106*
X01514Y0011*
X01504Y00111*
G37*
G36*
X01404D02*
X01394Y0011D01*
X01385Y00106*
X01377Y001*
X01371Y00092*
X01367Y00083*
X01366Y00073*
X01367Y00063*
X01371Y00054*
X01377Y00046*
X01385Y0004*
X01394Y00036*
X01404Y00035*
X01414Y00036*
X01423Y0004*
X01431Y00046*
X01437Y00054*
X01441Y00063*
X01442Y00073*
X01441Y00083*
X01437Y00092*
X01431Y001*
X01423Y00106*
X01414Y0011*
X01404Y00111*
G37*
G36*
X01304D02*
X01294Y0011D01*
X01285Y00106*
X01277Y001*
X01271Y00092*
X01267Y00083*
X01266Y00073*
X01267Y00063*
X01271Y00054*
X01277Y00046*
X01285Y0004*
X01294Y00036*
X01304Y00035*
X01314Y00036*
X01323Y0004*
X01331Y00046*
X01337Y00054*
X01341Y00063*
X01342Y00073*
X01341Y00083*
X01337Y00092*
X01331Y001*
X01323Y00106*
X01314Y0011*
X01304Y00111*
G37*
%LNpcb1_copper_signal_bot-3*%
%LPD*%
G36*
X00762Y01021D02*
X00781Y01002D01*
Y00817*
X00761Y00797*
X00621*
X00601Y00817*
Y01003*
X00619Y01021*
X00762*
G37*
G54D23*
X00501Y00819D02*
Y01295D01*
X00607Y01401D02*
X01115D01*
X00501Y01295D02*
X00607Y01401D01*
X0052Y00508D02*
X0058Y00568D01*
X00245Y00508D02*
X0052D01*
X01718Y00686D02*
Y01068D01*
X01321Y01141D02*
X01645D01*
X0189Y01068D02*
X01972Y0115D01*
X02045*
X01933Y00806D02*
X02043Y00916D01*
X01873Y00806D02*
X01933D01*
X01061Y01141D02*
X01321D01*
X00754D02*
X01061D01*
X00689Y01076D02*
X00754Y01141D01*
X00689Y01001D02*
Y01076D01*
X01412Y01049D02*
Y0114D01*
X01314Y00951D02*
X01412Y01049D01*
X01314Y00867D02*
Y00951D01*
X01645Y01141D02*
X01718Y01068D01*
X01595Y01539D02*
X01597Y01541D01*
X00665Y00131D02*
Y00328D01*
X0189Y01068D02*
X02043Y00916D01*
X02317Y00912D02*
X02318Y00913D01*
X02317Y00723D02*
Y00912D01*
X02316Y00722D02*
X02317Y00723D01*
X02043Y00916D02*
X02315D01*
X02318Y00913*
X01718Y01068D02*
X0189D01*
G54D24*
X01479Y00712D02*
X01621Y0057D01*
X01479Y00712D02*
Y00824D01*
X01685Y00569D02*
X01754D01*
X01524Y0073D02*
X01685Y00569D01*
X01524Y0073D02*
Y00824D01*
G54D27*
X01304Y00614D02*
Y00801D01*
X01341Y00576D02*
Y0077D01*
G54D28*
X00941Y00131D02*
Y00328D01*
X00803Y00131D02*
Y00328D01*
G54D29*
X01504Y00073D03*
X01604D03*
X01704D03*
X01904D03*
X01804D03*
X01404D03*
X01304D03*
X01504Y00174D03*
X01604D03*
X01704D03*
X01904D03*
X01804D03*
X01404D03*
X01304D03*
X02316Y00522D03*
Y00622D03*
Y00422D03*
X02318Y01113D03*
Y01013D03*
Y01213D03*
G54D30*
X02004Y00073D03*
Y00174D03*
G54D31*
X01361Y01541D03*
X0144D03*
X01518D03*
X01597D03*
G54D32*
X01676Y01541D03*
G54D33*
X00941Y00131D03*
X00803D03*
Y00328D03*
X00941D03*
X01079D03*
Y00131D03*
G54D34*
X00665Y00131D03*
Y00328D03*
G54D35*
X02316Y00722D03*
X02318Y00913D03*
G54D36*
X00143Y00143D03*
Y015D03*
X02248Y00143D03*
Y015D03*
G54D37*
X00501Y00819D03*
X0058Y00568D03*
X00245Y00508D03*
G54D38*
X01621Y0057D03*
X01304Y00801D03*
Y00614D03*
X01341Y00576D03*
Y0077D03*
X01754Y00569D03*
X02045Y0115D03*
X01115Y01401D03*
X00906Y01208D03*
X01462Y01033D03*
X01118Y01193D03*
X01061Y01141D03*
X00578Y00638D03*
X00627D03*
X01524Y00824D03*
X01479Y00824D03*
X0164Y008D03*
X01718Y00686D03*
X0069Y00835D03*
X0064D03*
X00742D03*
X0069Y0087D03*
X0064D03*
X00742D03*
X00741Y01001D03*
X00639D03*
X00689D03*
X00277Y00798D03*
X00213D03*
X00983Y00651D03*
X0012Y00998D03*
Y01097D03*
Y01194D03*
X01112Y0095D03*
X01412Y0114D03*
X01431Y00887D03*
X02024Y00806D03*
X01873D03*
X01321Y01141D03*
X01227Y00919D03*
X01314Y00867D03*
X01438Y01233D03*
X00602Y00638D03*
X01667Y01005D03*
X02085Y00472D03*
X01718Y01068D03*
X00245Y00798D03*
X01862Y0057D03*
X01582Y00484D03*
M02*