%FSTAX23Y23*%
%MOIN*%
%SFA1B1*%

%IPPOS*%
%ADD57C,0.005000*%
%LNpcb1_drillmap_1-1*%
%LPD*%
G54D57*
X01484Y00073D02*
X01524D01*
X01504Y00053D02*
Y00093D01*
X01584Y00073D02*
X01624D01*
X01604Y00053D02*
Y00093D01*
X01684Y00073D02*
X01724D01*
X01704Y00053D02*
Y00093D01*
X01884Y00073D02*
X01924D01*
X01904Y00053D02*
Y00093D01*
X01984Y00073D02*
X02024D01*
X02004Y00053D02*
Y00093D01*
X01784Y00073D02*
X01824D01*
X01804Y00053D02*
Y00093D01*
X01384Y00073D02*
X01424D01*
X01404Y00053D02*
Y00093D01*
X01284Y00073D02*
X01324D01*
X01304Y00053D02*
Y00093D01*
X01484Y00174D02*
X01524D01*
X01504Y00154D02*
Y00194D01*
X01584Y00174D02*
X01624D01*
X01604Y00154D02*
Y00194D01*
X01684Y00174D02*
X01724D01*
X01704Y00154D02*
Y00194D01*
X01884Y00174D02*
X01924D01*
X01904Y00154D02*
Y00194D01*
X01984Y00174D02*
X02024D01*
X02004Y00154D02*
Y00194D01*
X01784Y00174D02*
X01824D01*
X01804Y00154D02*
Y00194D01*
X01384Y00174D02*
X01424D01*
X01404Y00154D02*
Y00194D01*
X01284Y00174D02*
X01324D01*
X01304Y00154D02*
Y00194D01*
X01346Y01541D02*
X01376D01*
X01361Y01526D02*
Y01556D01*
X01425Y01541D02*
X01455D01*
X0144Y01526D02*
Y01556D01*
X01503Y01541D02*
X01533D01*
X01518Y01526D02*
Y01556D01*
X01582Y01541D02*
X01612D01*
X01597Y01526D02*
Y01556D01*
X01661Y01541D02*
X01691D01*
X01676Y01526D02*
Y01556D01*
X00919Y00131D02*
X00962D01*
X00941Y00109D02*
Y00153D01*
X00781Y00131D02*
X00825D01*
X00803Y00109D02*
Y00153D01*
X00644Y00131D02*
X00687D01*
X00665Y00109D02*
Y00153D01*
X00644Y00328D02*
X00687D01*
X00665Y00306D02*
Y0035D01*
X00781Y00328D02*
X00825D01*
X00803Y00306D02*
Y0035D01*
X00919Y00328D02*
X00962D01*
X00941Y00306D02*
Y0035D01*
X01057Y00328D02*
X011D01*
X01079Y00306D02*
Y0035D01*
X01057Y00131D02*
X011D01*
X01079Y00109D02*
Y00153D01*
X02296Y00522D02*
X02336D01*
X02316Y00502D02*
Y00542D01*
X02296Y00722D02*
X02336D01*
X02316Y00702D02*
Y00742D01*
X02296Y00622D02*
X02336D01*
X02316Y00602D02*
Y00642D01*
X02296Y00422D02*
X02336D01*
X02316Y00402D02*
Y00442D01*
X02298Y01113D02*
X02338D01*
X02318Y01093D02*
Y01133D01*
X02298Y00913D02*
X02338D01*
X02318Y00893D02*
Y00933D01*
X02298Y01013D02*
X02338D01*
X02318Y00993D02*
Y01033D01*
X02298Y01213D02*
X02338D01*
X02318Y01193D02*
Y01233D01*
X00061Y00143D02*
X00226D01*
X00143Y00061D02*
Y00226D01*
X00061Y015D02*
X00226D01*
X00143Y01417D02*
Y01582D01*
X02165Y00143D02*
X0233D01*
X02248Y00061D02*
Y00226D01*
X02165Y015D02*
X0233D01*
X02248Y01417D02*
Y01582D01*
X00491Y00819D02*
X00511D01*
X00501Y00809D02*
Y00829D01*
X01613Y0057D02*
X01629D01*
X01621Y00562D02*
Y00578D01*
X0057Y00568D02*
X0059D01*
X0058Y00558D02*
Y00578D01*
X00235Y00508D02*
X00255D01*
X00245Y00498D02*
Y00518D01*
X01296Y00801D02*
X01312D01*
X01304Y00793D02*
Y00809D01*
X01296Y00614D02*
X01312D01*
X01304Y00606D02*
Y00622D01*
X01333Y00576D02*
X01349D01*
X01341Y00568D02*
Y00584D01*
X01333Y0077D02*
X01349D01*
X01341Y00762D02*
Y00778D01*
X01746Y00569D02*
X01762D01*
X01754Y00561D02*
Y00577D01*
X02037Y0115D02*
X02053D01*
X02045Y01142D02*
Y01158D01*
X01107Y01401D02*
X01123D01*
X01115Y01393D02*
Y01409D01*
X00898Y01208D02*
X00914D01*
X00906Y012D02*
Y01216D01*
X01454Y01033D02*
X0147D01*
X01462Y01025D02*
Y01041D01*
X0111Y01193D02*
X01126D01*
X01118Y01185D02*
Y01201D01*
X01053Y01141D02*
X01069D01*
X01061Y01133D02*
Y01149D01*
X0057Y00638D02*
X00586D01*
X00578Y0063D02*
Y00646D01*
X00619Y00638D02*
X00635D01*
X00627Y0063D02*
Y00646D01*
X01516Y00824D02*
X01532D01*
X01524Y00816D02*
Y00831D01*
X01471Y00824D02*
X01487D01*
X01479Y00816D02*
Y00832D01*
X01632Y008D02*
X01648D01*
X0164Y00792D02*
Y00808D01*
X0171Y00686D02*
X01726D01*
X01718Y00678D02*
Y00694D01*
X00682Y00835D02*
X00698D01*
X0069Y00827D02*
Y00843D01*
X00632Y00835D02*
X00648D01*
X0064Y00827D02*
Y00843D01*
X00734Y00835D02*
X0075D01*
X00742Y00827D02*
Y00843D01*
X00682Y0087D02*
X00698D01*
X0069Y00862D02*
Y00878D01*
X00632Y0087D02*
X00648D01*
X0064Y00862D02*
Y00878D01*
X00734Y0087D02*
X0075D01*
X00742Y00862D02*
Y00878D01*
X00733Y01001D02*
X00749D01*
X00741Y00993D02*
Y01009D01*
X00631Y01001D02*
X00647D01*
X00639Y00993D02*
Y01009D01*
X00681Y01001D02*
X00697D01*
X00689Y00993D02*
Y01009D01*
X00269Y00798D02*
X00285D01*
X00277Y0079D02*
Y00806D01*
X00205Y00798D02*
X00221D01*
X00213Y0079D02*
Y00806D01*
X00975Y00651D02*
X00991D01*
X00983Y00643D02*
Y00659D01*
X00112Y00998D02*
X00128D01*
X0012Y0099D02*
Y01006D01*
X00112Y01097D02*
X00128D01*
X0012Y01089D02*
Y01105D01*
X00112Y01194D02*
X00128D01*
X0012Y01186D02*
Y01202D01*
X01104Y0095D02*
X0112D01*
X01112Y00942D02*
Y00958D01*
X01404Y0114D02*
X0142D01*
X01412Y01132D02*
Y01148D01*
X01423Y00887D02*
X01439D01*
X01431Y00879D02*
Y00895D01*
X02016Y00806D02*
X02032D01*
X02024Y00798D02*
Y00814D01*
X01865Y00806D02*
X01881D01*
X01873Y00798D02*
Y00814D01*
X01313Y01141D02*
X01329D01*
X01321Y01133D02*
Y01149D01*
X01219Y00919D02*
X01235D01*
X01227Y00911D02*
Y00927D01*
X01306Y00867D02*
X01322D01*
X01314Y00859D02*
Y00875D01*
X0143Y01233D02*
X01446D01*
X01438Y01225D02*
Y01241D01*
X00594Y00638D02*
X0061D01*
X00602Y0063D02*
Y00646D01*
X01659Y01005D02*
X01675D01*
X01667Y00997D02*
Y01013D01*
X02077Y00472D02*
X02093D01*
X02085Y00464D02*
Y0048D01*
X0171Y01068D02*
X01725D01*
X01718Y0106D02*
Y01076D01*
X00237Y00798D02*
X00253D01*
X00245Y0079D02*
Y00806D01*
X01854Y0057D02*
X0187D01*
X01862Y00562D02*
Y00578D01*
X01574Y00484D02*
X0159D01*
X01582Y00476D02*
Y00492D01*
M02*