%FSTAX23Y23*%
%MOIN*%
%SFA1B1*%

%IPPOS*%
%ADD75C,0.040000*%
%ADD76C,0.030000*%
%ADD77C,0.043307*%
%ADD78C,0.040000*%
%ADD79C,0.165354*%
%ADD80C,0.019685*%
%ADD81C,0.015748*%
%LNpcb1_pth_drill-1*%
%LPD*%
G54D75*
X01504Y00073D03*
X01604D03*
X01704D03*
X01904D03*
X02004D03*
X01804D03*
X01404D03*
X01304D03*
X01504Y00174D03*
X01604D03*
X01704D03*
X01904D03*
X02004D03*
X01804D03*
X01404D03*
X01304D03*
G54D76*
X01361Y01541D03*
X0144D03*
X01518D03*
X01597D03*
X01676D03*
G54D77*
X00941Y00131D03*
X00803D03*
X00665D03*
Y00328D03*
X00803D03*
X00941D03*
X01079D03*
Y00131D03*
G54D78*
X02316Y00522D03*
Y00722D03*
Y00622D03*
Y00422D03*
X02318Y01113D03*
Y00913D03*
Y01013D03*
Y01213D03*
G54D79*
X00143Y00143D03*
Y015D03*
X02248Y00143D03*
Y015D03*
G54D80*
X00501Y00819D03*
X0058Y00568D03*
X00245Y00508D03*
G54D81*
X01621Y0057D03*
X01304Y00801D03*
Y00614D03*
X01341Y00576D03*
Y0077D03*
X01754Y00569D03*
X02045Y0115D03*
X01115Y01401D03*
X00906Y01208D03*
X01462Y01033D03*
X01118Y01193D03*
X01061Y01141D03*
X00578Y00638D03*
X00627D03*
X01524Y00824D03*
X01479Y00824D03*
X0164Y008D03*
X01718Y00686D03*
X0069Y00835D03*
X0064D03*
X00742D03*
X0069Y0087D03*
X0064D03*
X00742D03*
X00741Y01001D03*
X00639D03*
X00689D03*
X00277Y00798D03*
X00213D03*
X00983Y00651D03*
X0012Y00998D03*
Y01097D03*
Y01194D03*
X01112Y0095D03*
X01412Y0114D03*
X01431Y00887D03*
X02024Y00806D03*
X01873D03*
X01321Y01141D03*
X01227Y00919D03*
X01314Y00867D03*
X01438Y01233D03*
X00602Y00638D03*
X01667Y01005D03*
X02085Y00472D03*
X01718Y01068D03*
X00245Y00798D03*
X01862Y0057D03*
X01582Y00484D03*
M02*