%FSTAX23Y23*%
%MOIN*%
%SFA1B1*%

%IPPOS*%
%ADD10R,0.220000X0.083000*%
%ADD11R,0.027559X0.035433*%
%ADD12O,0.023622X0.057087*%
%ADD13R,0.037402X0.084646*%
%ADD14R,0.127953X0.084646*%
%ADD15O,0.011811X0.057087*%
%ADD16O,0.057087X0.011811*%
%ADD17R,0.035433X0.027559*%
%ADD18R,0.037402X0.051181*%
%ADD19R,0.066929X0.041339*%
%ADD20R,0.021654X0.017716*%
%ADD21R,0.017716X0.021654*%
%ADD22R,0.098425X0.125000*%
%ADD23C,0.050000*%
%ADD24C,0.010000*%
%ADD25C,0.020000*%
%ADD26C,0.030000*%
%ADD27C,0.009842*%
%ADD28C,0.019685*%
%ADD29C,0.060000*%
%ADD30R,0.060000X0.060000*%
%ADD31C,0.050000*%
%ADD32R,0.050000X0.050000*%
%ADD33C,0.078740*%
%ADD34R,0.078740X0.078740*%
%ADD35R,0.060000X0.060000*%
%ADD36C,0.271654*%
%ADD37C,0.039370*%
%ADD38C,0.031496*%
%LNpcb1_copper_signal_top-1*%
%LPD*%
G36*
X02179Y01628D02*
X02162Y01618D01*
X02144Y01603*
X02129Y01585*
X02117Y01566*
X02108Y01545*
X02103Y01522*
X02102Y01507*
X02248*
Y015*
X02255*
Y01354*
X0227Y01355*
X02293Y0136*
X02314Y01369*
X02334Y01381*
X02351Y01396*
X02366Y01414*
X02376Y0143*
X02381Y01429*
Y00682*
X02376Y0068*
X02354Y00702*
Y0076*
X02278*
Y00684*
X02336*
X02359Y0066*
Y00624*
X02354Y00624*
X02353Y00632*
X02349Y00641*
X02343Y00649*
X02335Y00655*
X02326Y00659*
X02316Y0066*
X02306Y00659*
X02297Y00655*
X02296Y00654*
X02246Y00703*
Y00934*
X02245Y00939*
X02242Y00943*
X02172Y01014*
X02174Y01019*
X02226*
X02241Y01004*
X02245Y01001*
X0225Y01*
X02283*
X02285Y00994*
X02291Y00986*
X02299Y0098*
X02308Y00976*
X02318Y00975*
X02328Y00976*
X02337Y0098*
X02345Y00986*
X02351Y00994*
X02355Y01003*
X02356Y01013*
X02355Y01023*
X02351Y01032*
X02345Y0104*
X02337Y01046*
X02328Y0105*
X02318Y01051*
X02308Y0105*
X02299Y01046*
X02291Y0104*
X02285Y01032*
X02283Y01026*
X02256*
X02241Y01041*
X02236Y01044*
X02231Y01045*
X01868*
X01863Y01044*
X01859Y01041*
X01816Y00998*
X01745*
X0174Y00999*
X01695*
X0169Y00998*
X01685Y00995*
X01682Y0099*
X01681Y00985*
X01682Y00979*
X01685Y00975*
X01682Y0097*
X01681Y00965*
X01682Y0096*
X01685Y00955*
X01682Y00951*
X01681Y00945*
X01682Y0094*
X01685Y00935*
X01682Y00931*
X01681Y00926*
X01682Y0092*
X01685Y00916*
X01682Y00911*
X01681Y00906*
X01682Y00901*
X01685Y00896*
X01682Y00892*
X01681Y00886*
X01682Y00881*
X01685Y00876*
X01682Y00872*
X01681Y00867*
X01682Y00861*
X01685Y00857*
X01682Y00852*
X01681Y00847*
X01682Y00842*
X01685Y00837*
X01682Y00833*
X01681Y00827*
X01682Y00822*
X01685Y00817*
X01682Y00813*
X01681Y00808*
X01682Y00802*
X01685Y00798*
X0169Y00795*
X01695Y00793*
X0174*
X01745Y00794*
X01761*
X01771Y00784*
Y00763*
X01758*
Y00719*
X01809*
Y00728*
X01818*
X01884Y00662*
X01888Y00659*
X01893Y00658*
X02013*
X02018Y00659*
X02023Y00662*
X02043Y00682*
X02045Y00686*
X02046Y00691*
Y00707*
X02047Y00708*
X02052Y00715*
X02053Y00722*
Y00756*
X02052Y00763*
X02047Y0077*
X02041Y00774*
X02033Y00776*
X02026Y00774*
X02019Y0077*
X02015Y00763*
X02013Y00756*
Y00722*
X02015Y00715*
X02019Y00708*
X0202Y00707*
Y00696*
X02008Y00684*
X01899*
X01832Y0075*
X01828Y00753*
X01823Y00754*
X01809*
Y00763*
X01797*
Y0079*
X01796Y00795*
X01794Y00799*
X01783Y00809*
X01785Y00815*
X01787Y00815*
X01791Y00818*
X01869Y00896*
X01903*
Y00888*
X01954*
Y00896*
X02*
X0207Y00826*
Y00771*
X02069Y0077*
X02065Y00763*
X02063Y00756*
Y00722*
X02065Y00715*
X02069Y00708*
X02076Y00704*
X02083Y00702*
X02091Y00704*
X02097Y00708*
X02102Y00715*
X02103Y00722*
Y00756*
X02102Y00763*
X02097Y0077*
X02096Y00771*
Y00832*
X02095Y00837*
X02093Y00841*
X02015Y00919*
X02011Y00921*
X02006Y00922*
X01954*
Y00931*
X01903*
Y00922*
X01864*
X0186Y00922*
X01857Y00926*
X01857Y00926*
X01901Y0097*
X02131*
X02189Y00911*
Y00636*
X0219Y00631*
X02193Y00627*
X02282Y00538*
X02279Y00532*
X02278Y00522*
X02279Y00512*
X02283Y00503*
X02289Y00495*
X02297Y00489*
X02306Y00485*
X02316Y00484*
X02326Y00485*
X02335Y00489*
X02343Y00495*
X02349Y00503*
X02353Y00512*
X02354Y0052*
X02359Y0052*
Y00436*
X02354Y00435*
X02351Y00442*
X02345Y0045*
X02336Y00457*
X02327Y00461*
X02324Y00461*
Y00422*
Y00382*
X02327Y00383*
X02336Y00387*
X02345Y00393*
X02351Y00402*
X02354Y00409*
X02359Y00408*
Y00392*
X02317Y0035*
X02225*
Y00362*
X02182*
Y00311*
X02225*
Y00324*
X02322*
X02327Y00325*
X02331Y00328*
X02376Y00373*
X02381Y00371*
Y00214*
X02376Y00213*
X02366Y00229*
X02351Y00247*
X02334Y00262*
X02314Y00274*
X02293Y00282*
X0227Y00288*
X02255Y00289*
Y00143*
X02248*
Y00135*
X02102*
X02103Y0012*
X02108Y00098*
X02117Y00077*
X02129Y00057*
X02144Y0004*
X02162Y00025*
X02178Y00015*
X02177Y0001*
X00214Y0001*
X00212Y00015*
X00229Y00025*
X00247Y0004*
X00262Y00057*
X00274Y00077*
X00282Y00098*
X00288Y0012*
X00289Y00135*
X00143*
Y00143*
X00135*
Y00289*
X0012Y00288*
X00098Y00282*
X00077Y00274*
X00057Y00262*
X0004Y00247*
X00025Y00229*
X00015Y00213*
X0001Y00214*
Y01429*
X00015Y0143*
X00025Y01414*
X0004Y01396*
X00057Y01381*
X00077Y01369*
X00098Y0136*
X0012Y01355*
X00135Y01354*
Y015*
X00143*
Y01507*
X00289*
X00288Y01522*
X00282Y01545*
X00274Y01566*
X00262Y01585*
X00247Y01603*
X00229Y01618*
X00213Y01628*
X00214Y01633*
X02177Y01633*
X02179Y01628*
G37*
G36*
X01825Y0089D02*
X01825Y00889D01*
X01776Y0084*
X01758*
X01754Y00845*
X01754Y00847*
X01753Y00852*
X0175Y00857*
X01753Y00861*
X01754Y00867*
X01753Y00872*
X0175Y00876*
X01753Y00881*
X01754Y00886*
X01754Y00888*
X01758Y00893*
X01819*
X01822Y00894*
X01825Y0089*
G37*
G36*
X02221Y00693D02*
X02224Y00689D01*
X0228Y00633*
X02279Y00632*
X02278Y00622*
X02279Y00612*
X02283Y00603*
X02289Y00595*
X02297Y00589*
X02306Y00585*
X02316Y00584*
X02326Y00585*
X02335Y00589*
X02343Y00595*
X02349Y00603*
X02353Y00612*
X02354Y0062*
X02359Y0062*
Y00524*
X02354Y00524*
X02353Y00532*
X02349Y00541*
X02343Y00549*
X02335Y00555*
X02326Y00559*
X02316Y0056*
X02306Y00559*
X023Y00556*
X02215Y00641*
Y00696*
X0222Y00696*
X02221Y00693*
G37*
%LNpcb1_copper_signal_top-2*%
%LPC*%
G36*
X01369Y01575D02*
Y01549D01*
X01395*
X01395Y0155*
X01392Y01558*
X01386Y01566*
X01379Y01571*
X0137Y01575*
X01369Y01575*
G37*
G36*
X01353Y01575D02*
X01352Y01575D01*
X01343Y01571*
X01336Y01566*
X0133Y01558*
X01327Y0155*
X01327Y01549*
X01353*
Y01575*
G37*
G36*
X01395Y01533D02*
X01369D01*
Y01507*
X0137Y01507*
X01379Y0151*
X01386Y01516*
X01392Y01523*
X01395Y01532*
X01395Y01533*
G37*
G36*
X01353D02*
X01327D01*
X01327Y01532*
X0133Y01523*
X01336Y01516*
X01343Y0151*
X01352Y01507*
X01353Y01507*
Y01533*
G37*
G36*
X01806Y01623D02*
X01506D01*
X01501Y01622*
X01497Y01619*
X0145Y01572*
X01448Y01573*
X0144Y01574*
X01431Y01573*
X01423Y0157*
X01416Y01564*
X01411Y01557*
X01408Y01549*
X01407Y01541*
X01408Y01532*
X01411Y01524*
X01416Y01517*
X01423Y01512*
X01431Y01509*
X0144Y01508*
X01448Y01509*
X01456Y01512*
X01463Y01517*
X01468Y01524*
X01472Y01532*
X01473Y01541*
X01472Y01549*
X0147Y01555*
X01512Y01597*
X01549*
X01551Y01592*
X01531Y01571*
X01527Y01573*
X01518Y01574*
X0151Y01573*
X01502Y0157*
X01495Y01564*
X0149Y01557*
X01486Y01549*
X01485Y01541*
X01486Y01532*
X0149Y01524*
X01495Y01517*
X01502Y01512*
X0151Y01509*
X01518Y01508*
X01527Y01509*
X01535Y01512*
X01542Y01517*
X01547Y01524*
X01551Y01532*
X01552Y01541*
X01551Y01549*
X01549Y01553*
X0157Y01574*
X01578*
X01578Y01574*
X0158Y01569*
X01574Y01564*
X01569Y01557*
X01565Y01549*
X01564Y01541*
Y0149*
X01508Y01434*
X01116*
X01108Y01433*
X011Y0143*
X01093Y01424*
X01092Y01423*
X01087Y01416*
X01083Y01408*
X01082Y014*
X01083Y01391*
X01087Y01383*
X01092Y01376*
X01099Y01371*
X01107Y01368*
X01115Y01367*
X01123Y01368*
X01522*
X01531Y01369*
X01539Y01372*
X01546Y01377*
X01621Y01452*
X01626Y01459*
X01629Y01467*
X0163Y01476*
Y01541*
Y01541*
X01629Y01549*
X01626Y01557*
X01621Y01564*
X01615Y01569*
X01616Y01574*
X01616Y01574*
X01643*
Y01508*
X01709*
Y01522*
X01714Y01524*
X01806Y01433*
Y01407*
X01857*
Y0145*
X01825*
X01725Y0155*
X01721Y01553*
X01716Y01554*
X01709*
Y01574*
X01741*
X01886Y01429*
Y01404*
X01937*
Y01447*
X01904*
X0176Y01592*
X01762Y01597*
X018*
X01966Y01431*
Y01407*
X02017*
Y0145*
X01984*
X01815Y01619*
X01811Y01622*
X01806Y01623*
G37*
G36*
X0224Y01492D02*
X02102D01*
X02103Y01477*
X02108Y01454*
X02117Y01433*
X02129Y01414*
X02144Y01396*
X02162Y01381*
X02181Y01369*
X02202Y0136*
X02225Y01355*
X0224Y01354*
Y01492*
G37*
G36*
X00289D02*
X00151D01*
Y01354*
X00166Y01355*
X00188Y0136*
X0021Y01369*
X00229Y01381*
X00247Y01396*
X00262Y01414*
X00274Y01433*
X00282Y01454*
X00288Y01477*
X00289Y01492*
G37*
G36*
X00658Y01275D02*
X00615D01*
Y01255*
X00197*
Y01267*
X00154*
Y01216*
X00197*
Y01229*
X00615*
Y01224*
X00658*
Y01275*
G37*
G36*
X02326Y01252D02*
Y01221D01*
X02358*
X02357Y01223*
X02353Y01233*
X02347Y01241*
X02338Y01248*
X02329Y01252*
X02326Y01252*
G37*
G36*
X0231D02*
X02308Y01252D01*
X02298Y01248*
X0229Y01241*
X02283Y01233*
X02279Y01223*
X02279Y01221*
X0231*
Y01252*
G37*
G36*
X00713Y01275D02*
X0067D01*
Y01224*
X00713*
Y01237*
X00791*
X0082Y01207*
X00818Y01203*
X00713*
Y01215*
X0067*
Y01164*
X00713*
Y01176*
X00822*
X00852Y01147*
X0085Y01142*
X00713*
Y01155*
X0067*
Y01104*
X00713*
Y01116*
X00851*
X00889Y01078*
Y00969*
X0089Y00964*
X00893Y0096*
X00989Y00864*
X00993Y00861*
X00998Y0086*
X01129*
X01163Y00825*
X01162Y00822*
X01161Y0082*
X01154Y00819*
X01147Y00814*
X01143Y00808*
X01141Y008*
Y00767*
X01143Y00759*
X01147Y00753*
X01154Y00748*
X01162Y00747*
X01169Y00748*
X01176Y00753*
X0118Y00759*
X01182Y00767*
Y008*
X01183Y00801*
X01186Y00802*
X01323Y00666*
X01321Y00661*
X0128*
X01275Y0066*
X01271Y00657*
X01149Y00535*
X01146Y00531*
X01145Y00526*
Y00301*
X01109Y00265*
X00777*
X00748Y00293*
Y004*
X00901Y00553*
X00904Y00557*
X00905Y00562*
Y00569*
X00913*
Y0062*
X00905*
Y00627*
X00914*
Y00678*
X00871*
Y00627*
X00879*
Y0062*
X0087*
Y00569*
X00873*
X00875Y00564*
X00726Y00415*
X00723Y00411*
X00722Y00406*
Y00288*
X00723Y00283*
X00726Y00279*
X00762Y00243*
X00766Y0024*
X00771Y00239*
X01114*
X01119Y0024*
X01124Y00243*
X01168Y00287*
X0117Y00291*
X01171Y00296*
Y0052*
X0128Y00629*
X01284Y00626*
X01282Y00623*
X0128Y00614*
X01282Y00605*
X01287Y00597*
X01291Y00594*
Y00209*
X01285Y00207*
X01277Y00201*
X01271Y00193*
X01267Y00184*
X01266Y00174*
X01267Y00164*
X01271Y00155*
X01277Y00147*
X01285Y00141*
X01294Y00137*
X01304Y00136*
X01314Y00137*
X01323Y00141*
X01331Y00147*
X01337Y00155*
X01341Y00164*
X01342Y00174*
X01341Y00184*
X01337Y00193*
X01331Y00201*
X01323Y00207*
X01317Y00209*
Y00236*
X01322Y00237*
X0137Y0019*
X01367Y00184*
X01366Y00174*
X01367Y00164*
X01371Y00155*
X01377Y00147*
X01385Y00141*
X01394Y00137*
X01404Y00136*
X01414Y00137*
X01423Y00141*
X01431Y00147*
X01437Y00155*
X01441Y00164*
X01442Y00174*
X01441Y00184*
X01439Y00189*
X01442Y00193*
X01466*
X01469Y00189*
X01467Y00184*
X01466Y00174*
X01467Y00164*
X01471Y00155*
X01477Y00147*
X01485Y00141*
X01494Y00137*
X01504Y00136*
X01514Y00137*
X01523Y00141*
X01531Y00147*
X01537Y00155*
X01541Y00164*
X01542Y00174*
X01541Y00184*
X01537Y00193*
X01531Y00201*
X01523Y00207*
X01519Y00209*
X0152Y00214*
X01546*
X0157Y0019*
X01567Y00184*
X01566Y00174*
X01567Y00164*
X01571Y00155*
X01577Y00147*
X01585Y00141*
X01594Y00137*
X01604Y00136*
X01614Y00137*
X01623Y00141*
X01631Y00147*
X01637Y00155*
X01641Y00164*
X01642Y00174*
X01641Y00184*
X01637Y00193*
X01631Y00201*
X01623Y00207*
X01614Y00211*
X01604Y00212*
X01594Y00211*
X01588Y00208*
X01566Y00231*
X01567Y00236*
X01624*
X0167Y0019*
X01667Y00184*
X01666Y00174*
X01667Y00164*
X01671Y00155*
X01677Y00147*
X01685Y00141*
X01694Y00137*
X01704Y00136*
X01714Y00137*
X01723Y00141*
X01731Y00147*
X01737Y00155*
X01741Y00164*
X01742Y00174*
X01741Y00184*
X01737Y00193*
X01731Y00201*
X01723Y00207*
X01714Y00211*
X01704Y00212*
X01694Y00211*
X01688Y00208*
X01645Y00252*
X01646Y00257*
X01703*
X0177Y0019*
X01767Y00184*
X01766Y00174*
X01767Y00164*
X01771Y00155*
X01777Y00147*
X01785Y00141*
X01794Y00137*
X01804Y00136*
X01814Y00137*
X01823Y00141*
X01831Y00147*
X01837Y00155*
X01841Y00164*
X01842Y00174*
X01841Y00184*
X01837Y00193*
X01831Y00201*
X01823Y00207*
X01814Y00211*
X01804Y00212*
X01794Y00211*
X01788Y00208*
X01723Y00274*
X01724Y00279*
X01781*
X0187Y0019*
X01867Y00184*
X01866Y00174*
X01867Y00164*
X01871Y00155*
X01877Y00147*
X01885Y00141*
X01894Y00137*
X01904Y00136*
X01914Y00137*
X01923Y00141*
X01931Y00147*
X01937Y00155*
X01941Y00164*
X01942Y00174*
X01941Y00184*
X01937Y00193*
X01931Y00201*
X01923Y00207*
X01914Y00211*
X01904Y00212*
X01894Y00211*
X01888Y00208*
X01802Y00295*
X01803Y003*
X0186*
X01966Y00193*
Y00136*
X02042*
Y00212*
X01985*
X01875Y00322*
X0187Y00325*
X01865Y00326*
X01481*
X01475Y00331*
X01477Y00336*
X01705*
Y00435*
X01697*
Y005*
X01706*
Y00551*
X01663*
X01662*
X01658Y00551*
X01649*
Y00554*
X01648Y00559*
X01646Y00563*
X01644Y00565*
X01645Y0057*
X01643Y0058*
X01638Y00587*
X0163Y00593*
X01621Y00594*
X01612Y00593*
X01609Y00591*
X01606Y00595*
X01629Y00618*
X01632Y00623*
X01633Y00628*
Y00722*
X01634Y00727*
Y00772*
X01633Y00777*
X0163Y00782*
X01626Y00785*
X0162Y00786*
X01615Y00785*
X0161Y00782*
X01606Y00785*
X016Y00786*
X01595Y00785*
X01591Y00782*
X01586Y00785*
X01581Y00786*
X01575Y00785*
X01571Y00782*
X01566Y00785*
X01561Y00786*
X01556Y00785*
X01551Y00782*
X01547Y00785*
X01541Y00786*
X01536Y00785*
X01532Y00782*
X01527Y00785*
X01522Y00786*
X01516Y00785*
X01512Y00782*
X01507Y00785*
X01502Y00786*
X01497Y00785*
X01492Y00782*
X01488Y00785*
X01482Y00786*
X01477Y00785*
X01472Y00782*
X01468Y00785*
X01463Y00786*
X01457Y00785*
X01453Y00782*
X01448Y00785*
X01443Y00786*
X01438Y00785*
X01433Y00782*
X0143Y00777*
X01429Y00772*
Y00728*
X01425Y00724*
X01356*
X01338Y00742*
X01341Y00746*
X01341Y00746*
X0135Y00748*
X01358Y00753*
X01363Y00761*
X01365Y0077*
X01363Y00779*
X01358Y00787*
X01359Y00792*
X01362Y00794*
X01362Y00793*
X01408*
X01413Y00795*
X01417Y00798*
X01421Y00802*
X01422Y00808*
X01421Y00813*
X01418Y00817*
X01421Y00822*
X01422Y00827*
X01421Y00833*
X01418Y00837*
X01421Y00842*
X01422Y00847*
X01421Y00852*
X01418Y00857*
X01421Y00861*
X01422Y00867*
X01421Y00872*
X01417Y00877*
X01413Y0088*
X01408Y00881*
X01362*
X01359Y0088*
X01334*
X01331Y00884*
X01323Y00889*
X01314Y00891*
X01305Y00889*
X01297Y00884*
X01297Y00883*
X01292Y00885*
Y00885*
X01241*
Y00846*
X01236Y00844*
X01158Y00922*
X01154Y00925*
X01149Y00926*
X01025*
X00956Y00994*
Y01103*
X00955Y01108*
X00953Y01112*
X00806Y01259*
X00801Y01262*
X00796Y01263*
X00713*
Y01275*
G37*
G36*
X02017Y01395D02*
X01966D01*
Y01352*
X01978*
Y01271*
X01975*
Y01254*
X01923Y01202*
X0166*
X01657Y01207*
X01657Y01208*
X0188*
X01885Y01209*
X01889Y01212*
X01911Y01233*
X01928*
Y01271*
X01924*
Y01349*
X01937*
Y01392*
X01886*
Y01349*
X01898*
Y01271*
X01895*
Y01254*
X01875Y01234*
X01848*
Y01271*
X01844*
Y01352*
X01857*
Y01395*
X01806*
Y01352*
X01818*
Y01271*
X01815*
Y01265*
X01643*
X01638Y01264*
X01633Y01261*
X01539Y01167*
X01535Y01169*
Y01277*
X01534Y01282*
X01531Y01287*
X01484Y01334*
X01479Y01337*
X01474Y01338*
X01112*
X01107Y01337*
X01103Y01334*
X01002Y01233*
X00977*
Y01182*
X01015*
X01016*
X01021Y01178*
X01021Y01176*
X01002Y01157*
X00999Y01153*
X00998Y01148*
Y0103*
X00997Y01029*
X00993Y01022*
X00991Y01015*
Y00981*
X00993Y00974*
X00997Y00967*
X01004Y00963*
X01012Y00961*
X01019Y00963*
X01026Y00967*
X0103Y00974*
X01032Y00981*
Y01015*
X0103Y01022*
X01026Y01029*
X01025Y0103*
Y01143*
X01035Y01153*
X01039Y0115*
X01037Y01141*
X01039Y01132*
X01043Y01125*
Y01097*
X0104*
Y01046*
X01044*
Y01023*
X01043Y01022*
X01041Y01015*
Y00981*
X01043Y00974*
X01047Y00967*
X01054Y00963*
X01062Y00961*
X01069Y00963*
X01076Y00967*
X0108Y00974*
X01082Y00981*
Y01015*
X0108Y01022*
X0108Y01023*
Y01046*
X01083*
Y01097*
X01079*
Y01125*
X01083Y01132*
X01085Y01141*
X01083Y0115*
X01078Y01158*
X0107Y01163*
X01061Y01165*
X01052Y01163*
X01049Y01167*
X01164Y01282*
X01278*
X01279Y01277*
X01277Y01275*
X01154Y01152*
X01151Y01148*
X0115Y01143*
Y01031*
X01147Y01029*
X01143Y01022*
X01141Y01015*
Y00981*
X01143Y00974*
X01147Y00967*
X01154Y00963*
X01162Y00961*
X01169Y00963*
X01176Y00967*
X0118Y00974*
X01182Y00981*
Y01015*
X0118Y01022*
X01177Y01028*
Y01138*
X01292Y01253*
X01449*
X01469Y01232*
Y01109*
X01468Y01105*
Y0106*
X01469Y01054*
X01472Y0105*
X01477Y01047*
X01482Y01045*
X01488Y01047*
X01492Y0105*
X01497Y01047*
X01502Y01045*
X01507Y01047*
X01512Y0105*
X01516Y01047*
X01522Y01045*
X01527Y01047*
X01532Y0105*
X01536Y01047*
X01541Y01045*
X01547Y01047*
X01551Y0105*
X01556Y01047*
X01561Y01045*
X01566Y01047*
X01571Y0105*
X01575Y01047*
X01581Y01045*
X01586Y01047*
X01591Y0105*
X01595Y01047*
X016Y01045*
X01606Y01047*
X0161Y0105*
X01615Y01047*
X0162Y01045*
X01626Y01047*
X0163Y0105*
X01634Y01047*
X0164Y01045*
X01645Y01047*
X0165Y0105*
X01654Y01047*
X0166Y01045*
X01665Y01047*
X01669Y0105*
X01672Y01054*
X01674Y0106*
Y01105*
X01673Y01109*
X01688Y01124*
X0177*
X0179Y01104*
X01794Y01101*
X01799Y011*
X02283*
X02285Y01094*
X02291Y01086*
X02299Y0108*
X02308Y01076*
X02318Y01075*
X02328Y01076*
X02337Y0108*
X02345Y01086*
X02351Y01094*
X02355Y01103*
X02356Y01113*
X02355Y01123*
X02351Y01132*
X02345Y0114*
X02337Y01146*
X02328Y0115*
X02318Y01151*
X02308Y0115*
X02299Y01146*
X02291Y0114*
X02285Y01132*
X02283Y01126*
X02061*
X0206Y01131*
X02062Y01133*
X02067Y01141*
X02069Y0115*
X02067Y01159*
X02062Y01167*
X02054Y01172*
X02045Y01174*
X02036Y01172*
X02028Y01167*
X02026Y01163*
X02008*
Y01168*
X01975*
Y01163*
X01928*
Y01168*
X01895*
Y01163*
X01848*
Y01168*
X01815*
Y01131*
X01814Y01126*
X01805*
X01785Y01146*
X0178Y01149*
X01775Y0115*
X01682*
X01677Y01149*
X01673Y01146*
X0165Y01123*
X01647Y01119*
X01642Y01118*
X0164Y01119*
X01634Y01118*
X0163Y01115*
X01626Y01118*
X0162Y01119*
X01615Y01118*
X01613Y01117*
X0161Y01118*
X01609Y01124*
X01661Y01176*
X01928*
X01933Y01177*
X01937Y0118*
X01991Y01233*
X02008*
Y01271*
X02004*
Y01352*
X02017*
Y01395*
G37*
G36*
X02358Y01205D02*
X02326D01*
Y01173*
X02329Y01174*
X02338Y01178*
X02347Y01184*
X02353Y01193*
X02357Y01202*
X02358Y01205*
G37*
G36*
X0231D02*
X02279D01*
X02279Y01202*
X02283Y01193*
X0229Y01184*
X02298Y01178*
X02308Y01174*
X0231Y01173*
Y01205*
G37*
G36*
X00658Y01215D02*
X00615D01*
Y01203*
X00337*
X00332Y01202*
X00328Y01199*
X00287Y01158*
X00197*
Y0117*
X00154*
Y01119*
X00197*
Y01132*
X00292*
X00297Y01133*
X00302Y01136*
X00342Y01176*
X00615*
Y01164*
X00658*
Y01215*
G37*
G36*
X01321Y01165D02*
X01312Y01163D01*
X01304Y01158*
X01299Y0115*
X01297Y01141*
X01298Y01136*
X01257Y01095*
X01254Y01091*
X01253Y01086*
Y01058*
X01241*
Y01014*
X01292*
Y01058*
X01279*
Y0108*
X01317Y01118*
X01321Y01117*
X0133Y01119*
X01338Y01124*
X01343Y01132*
X01345Y01141*
X01343Y0115*
X01338Y01158*
X0133Y01163*
X01321Y01165*
G37*
G36*
X00658Y01155D02*
X00615D01*
Y01142*
X00379*
X00374Y01141*
X00369Y01138*
X00292Y01061*
X00197*
Y01073*
X00154*
Y01022*
X00197*
Y01035*
X00297*
X00302Y01036*
X00307Y01039*
X00384Y01116*
X00615*
Y01104*
X00658*
Y01155*
G37*
G36*
X01813Y01094D02*
X01762D01*
Y01081*
X01737*
X01735Y01085*
X01727Y0109*
X01718Y01092*
X01708Y0109*
X01701Y01085*
X01695Y01077*
X01693Y01068*
X01695Y01059*
X01701Y01051*
X01704Y01048*
Y01038*
X01695*
X0169Y01037*
X01685Y01034*
X01682Y01029*
X01681Y01024*
X01682Y01019*
X01685Y01014*
X0169Y01011*
X01695Y0101*
X0174*
X01746Y01011*
X0175Y01014*
X01753Y01019*
X01754Y01024*
X01753Y01029*
X0175Y01034*
X01746Y01037*
X0174Y01038*
X01731*
Y01048*
X01735Y01051*
X01737Y01055*
X01762*
Y0105*
X01813*
Y01094*
G37*
G36*
X01416Y01209D02*
X01372D01*
Y01158*
X01388*
Y01151*
X01389Y01146*
X01389Y01146*
X01388Y0114*
X0139Y01131*
X01395Y01123*
X01403Y01118*
X01412Y01116*
X01417Y01117*
X01429Y01105*
Y0106*
X0143Y01054*
X01433Y0105*
X01438Y01047*
X01443Y01045*
X01448Y01047*
X01453Y0105*
X01456Y01054*
X01457Y0106*
Y01105*
X01456Y0111*
X01456Y0111*
X01455Y01114*
X01452Y01118*
X01435Y01135*
X01436Y0114*
X01434Y01149*
X01429Y01157*
X01421Y01162*
X01416Y01163*
Y01209*
G37*
G36*
X00658Y01094D02*
X00614D01*
Y01082*
X00416*
X00411Y01081*
X00407Y01078*
X00293Y00964*
X00197*
Y00976*
X00154*
Y00925*
X00197*
Y00938*
X00298*
X00303Y00939*
X00308Y00942*
X00422Y01056*
X00614*
Y01043*
X00658*
Y01094*
G37*
G36*
X00713D02*
X0067D01*
Y01043*
X00673*
Y01029*
X00619*
X00619*
X00616Y01028*
X00614Y01026*
X00596Y01008*
X00594Y01006*
X00593Y01003*
Y00817*
Y00817*
X00594Y00814*
X00596Y00811*
X00596*
X00665Y00742*
Y00656*
X00718*
Y00742*
X00787Y00811*
X00789Y00814*
X00789Y00817*
Y00912*
X00819*
X00853Y00878*
Y00862*
X00855Y00853*
X0086Y00846*
Y00843*
X00863*
X00867Y0084*
X00876Y00839*
X00885Y0084*
X00889Y00843*
X00893*
Y00846*
X00898Y00853*
X009Y00862*
Y00888*
X00898Y00897*
X00893Y00904*
X00846Y00951*
X00838Y00957*
X00829Y00958*
X00789*
Y01002*
X00789Y01005*
X00787Y01007*
X00768Y01026*
X00765Y01028*
X00762Y01029*
X00709Y01029*
Y01043*
X00713*
Y01094*
G37*
G36*
X01408Y01038D02*
X01362D01*
X01357Y01037*
X01352Y01034*
X01349Y01029*
X01348Y01024*
X01349Y01019*
X01352Y01014*
X01349Y0101*
X01348Y01004*
X01349Y00999*
X01352Y00995*
X01349Y0099*
X01348Y00985*
X01349Y00979*
X01352Y00975*
X01349Y0097*
X01348Y00965*
X01349Y0096*
X01352Y00955*
X01349Y00951*
X01348Y00945*
X01349Y0094*
X01352Y00935*
X01349Y00931*
X01349Y00928*
X01343Y00926*
X01292Y00978*
Y01002*
X01241*
Y00959*
X01273*
X01335Y00897*
X0134Y00894*
X01345Y00893*
X01357*
X01357Y00893*
X01362Y00892*
X01408*
X01413Y00893*
X01417Y00896*
X01421Y00901*
X01422Y00906*
X01421Y00908*
X01425Y00913*
X01438*
X01466Y00884*
Y00843*
X01462Y00841*
X01457Y00833*
X01455Y00824*
X01457Y00815*
X01462Y00807*
X0147Y00802*
X01479Y008*
X01488Y00802*
X01496Y00807*
X01498Y0081*
X01504*
X01507Y00807*
X01515Y00801*
X01524Y00799*
X01533Y00801*
X01541Y00807*
X01546Y00814*
X01548Y00824*
X01546Y00833*
X01541Y00841*
X01537Y00843*
Y00887*
X01536Y00892*
X01533Y00897*
X01475Y00955*
X01471Y00957*
X01466Y00958*
X01425*
X01421Y00963*
X01422Y00965*
X01421Y0097*
X01418Y00975*
X01421Y00979*
X01422Y00985*
X01421Y0099*
X01418Y00995*
X01421Y00999*
X01422Y01004*
X01421Y0101*
X01418Y01014*
X01421Y01019*
X01422Y01024*
X01421Y01029*
X01417Y01034*
X01413Y01037*
X01408Y01038*
G37*
G36*
X02356Y00951D02*
X0228D01*
Y00875*
X02356*
Y00951*
G37*
G36*
X01954Y00876D02*
X01903D01*
Y00833*
X01907Y00831*
Y00824*
X01889*
X01882Y00828*
X01873Y0083*
X01864Y00828*
X01856Y00823*
X01851Y00815*
X01849Y00806*
X01851Y00797*
X01856Y00789*
X01864Y00784*
X01873Y00782*
X01882Y00784*
X01889Y00788*
X01907*
Y0078*
X01915*
Y00764*
X01915Y00763*
X01913Y00756*
Y00722*
X01915Y00715*
X01919Y00708*
X01926Y00704*
X01933Y00702*
X01941Y00704*
X01947Y00708*
X01952Y00715*
X01953Y00722*
Y00756*
X01952Y00763*
X01951Y00764*
Y00797*
X0195Y00804*
X0195Y00804*
Y00831*
X01954Y00833*
Y00876*
G37*
G36*
X01012Y0082D02*
X01004Y00819D01*
X00997Y00814*
X00993Y00808*
X00991Y008*
Y00767*
X00993Y00759*
X00997Y00753*
X01004Y00748*
X01012Y00747*
X01019Y00748*
X01026Y00753*
X0103Y00759*
X01032Y00767*
Y008*
X0103Y00808*
X01026Y00814*
X01019Y00819*
X01012Y0082*
G37*
G36*
X00876Y00783D02*
X00867Y00781D01*
X00863Y00778*
X0086*
Y00776*
X00855Y00769*
X00853Y0076*
Y0075*
X0083Y00727*
X00808*
Y00757*
X00755*
Y00726*
X00753Y00723*
X0075Y00715*
X00749Y00707*
Y00664*
X00685Y00601*
X0058*
X00572Y006*
X00564Y00597*
X00557Y00591*
X00552Y00584*
X00548Y00576*
X00547Y00568*
X00548Y00559*
X00552Y00551*
X00557Y00544*
X00564Y00539*
X00572Y00536*
X0058Y00535*
X00699*
X00708Y00536*
X00716Y00539*
X00723Y00544*
X00805Y00627*
X0081Y00634*
X00814Y00642*
X00815Y0065*
Y00681*
X0084*
X00848Y00683*
X00856Y00688*
X00893Y00724*
X00898Y00732*
X009Y00741*
Y0076*
X00898Y00769*
X00893Y00776*
Y00778*
X00889*
X00885Y00781*
X00876Y00783*
G37*
G36*
X0166Y00786D02*
X01654Y00785D01*
X0165Y00782*
X01647Y00777*
X01645Y00772*
Y00727*
X01646Y00722*
Y00714*
X01647Y00709*
X0165Y00704*
X01679Y00676*
X01683Y00673*
X01688Y00672*
X01694*
X01695Y00671*
X01697Y00666*
Y00615*
X0174*
Y00666*
X01741Y00671*
X01742Y00673*
X01758*
Y00664*
X01809*
Y00707*
X01758*
Y00699*
X01738*
X01735Y00703*
X01727Y00708*
X01718Y0071*
X01709Y00708*
X01701Y00703*
X01698Y00698*
X01693*
X01673Y00719*
Y00722*
X01674Y00727*
Y00772*
X01672Y00777*
X01669Y00782*
X01665Y00785*
X0166Y00786*
G37*
G36*
X02033Y00561D02*
X02026Y0056D01*
X02019Y00555*
X02015Y00549*
X02013Y00541*
Y00508*
X02015Y005*
X02019Y00494*
X02026Y00489*
X02033Y00488*
X02041Y00489*
X02047Y00494*
X02052Y005*
X02053Y00508*
Y00541*
X02052Y00549*
X02047Y00555*
X02041Y0056*
X02033Y00561*
G37*
G36*
X01983D02*
X01976Y0056D01*
X01969Y00555*
X01965Y00549*
X01963Y00541*
Y00508*
X01965Y005*
X01969Y00494*
X01976Y00489*
X01983Y00488*
X01991Y00489*
X01997Y00494*
X02002Y005*
X02003Y00508*
Y00541*
X02002Y00549*
X01997Y00555*
X01991Y0056*
X01983Y00561*
G37*
G36*
X01933D02*
X01926Y0056D01*
X01919Y00555*
X01915Y00549*
X01913Y00541*
Y00508*
X01915Y005*
X01919Y00494*
X01926Y00489*
X01933Y00488*
X01941Y00489*
X01947Y00494*
X01952Y005*
X01953Y00508*
Y00541*
X01952Y00549*
X01947Y00555*
X01941Y0056*
X01933Y00561*
G37*
G36*
X00501Y00852D02*
X00493Y00851D01*
X00485Y00848*
X00478Y00842*
X00473Y00835*
X00469Y00827*
X00468Y00819*
Y00481*
X00388Y004*
X00382Y00393*
X00379Y00385*
X00378Y00377*
Y00252*
X00379Y00244*
X00382Y00236*
X00388Y00229*
X00395Y00224*
X00403Y0022*
X00411Y00219*
X00418Y0022*
X00508*
X00517Y00221*
X00525Y00225*
X00525Y00225*
X0055*
Y00282*
X00525*
X00525Y00282*
X00517Y00285*
X00508Y00286*
X00444*
Y00363*
X00525Y00443*
X0053Y0045*
X00531Y00453*
X00707Y00449*
X00707Y00449*
X00708Y00449*
X0071Y00449*
X00712Y0045*
X00712Y0045*
X00713Y0045*
X00715Y00451*
X00717Y00452*
X00717Y00452*
X00717Y00453*
X00833Y00569*
X00858*
Y0062*
X00815*
Y00588*
X00702Y00475*
X00534Y00479*
Y00819*
X00533Y00827*
X0053Y00835*
X00525Y00842*
X00518Y00848*
X0051Y00851*
X00501Y00852*
G37*
G36*
X02308Y00461D02*
X02306Y00461D01*
X02296Y00457*
X02288Y0045*
X02281Y00442*
X02277Y00432*
X02277Y0043*
X02308*
Y00461*
G37*
G36*
Y00414D02*
X02277D01*
X02277Y00411*
X02281Y00402*
X02288Y00393*
X02296Y00387*
X02306Y00383*
X02308Y00382*
Y00414*
G37*
G36*
X01754Y00593D02*
X01745Y00591D01*
X01737Y00586*
X01732Y00578*
X0173Y00569*
X01731Y00564*
X0173Y00563*
X01727Y00559*
X01726Y00554*
Y00551*
X01718*
Y005*
X01761*
Y00513*
X01773*
Y005*
X01781*
Y00478*
X01782Y00473*
X01785Y00469*
X01843Y0041*
Y00336*
X02079*
Y00435*
X01855*
X01807Y00483*
Y005*
X01816*
Y00551*
X01777*
X01774Y00556*
X01776Y0056*
X01778Y00569*
X01776Y00578*
X01771Y00586*
X01763Y00591*
X01754Y00593*
G37*
G36*
X01086Y00377D02*
Y00336D01*
X01127*
X01127Y00341*
X01122Y00353*
X01114Y00363*
X01104Y00371*
X01092Y00376*
X01086Y00377*
G37*
G36*
X01071D02*
X01066Y00376D01*
X01054Y00371*
X01043Y00363*
X01035Y00353*
X01031Y00341*
X0103Y00336*
X01071*
Y00377*
G37*
G36*
X00712Y00375D02*
X00618D01*
Y00281*
X00712*
Y00375*
G37*
G36*
X01112Y0082D02*
X01104Y00819D01*
X01097Y00814*
X01093Y00808*
X01091Y008*
Y00767*
X01093Y00759*
X01093Y00759*
Y0073*
Y0073*
X01095Y00723*
X01099Y00718*
X01109Y00707*
Y00666*
X01096*
Y00599*
X01109*
Y00582*
X00926Y00399*
X00922Y00394*
X00921Y00387*
Y00371*
X00917Y00369*
X00907Y00362*
X009Y00352*
X00895Y0034*
X00893Y00328*
X00895Y00316*
X009Y00304*
X00907Y00294*
X00917Y00287*
X00928Y00282*
X00941Y0028*
X00953Y00282*
X00965Y00287*
X00975Y00294*
X00982Y00304*
X00987Y00316*
X00988Y00328*
X00987Y0034*
X00982Y00352*
X00975Y00362*
X00965Y00369*
X00957Y00372*
Y00379*
X0114Y00562*
X01144Y00568*
X01145Y00575*
Y00599*
X01149*
Y00666*
X01145*
Y00715*
X01144Y00722*
X0114Y00728*
X0113Y00738*
Y00759*
X0113Y00759*
X01132Y00767*
Y008*
X0113Y00808*
X01126Y00814*
X01119Y00819*
X01112Y0082*
G37*
G36*
X01062D02*
X01054Y00819D01*
X01047Y00814*
X01043Y00808*
X01041Y008*
Y00767*
X01043Y00759*
X01043Y00759*
Y00734*
X01035Y00726*
X01031Y0072*
X0103Y00713*
Y00666*
X01023*
Y00628*
X00792Y00397*
X00788Y00391*
X00787Y00384*
Y00384*
Y00372*
X00779Y00369*
X00769Y00362*
X00762Y00352*
X00757Y0034*
X00755Y00328*
X00757Y00316*
X00762Y00304*
X00769Y00294*
X00779Y00287*
X00791Y00282*
X00803Y0028*
X00815Y00282*
X00827Y00287*
X00837Y00294*
X00844Y00304*
X00849Y00316*
X00851Y00328*
X00849Y0034*
X00844Y00352*
X00837Y00362*
X00827Y00369*
X00823Y00371*
Y00377*
X01046Y00599*
X01076*
Y00666*
X01066*
Y00705*
X01074Y00713*
Y00713*
X01078Y00719*
X0108Y00726*
Y00759*
X0108Y00759*
X01082Y00767*
Y008*
X0108Y00808*
X01076Y00814*
X01069Y00819*
X01062Y0082*
G37*
G36*
X01127Y0032D02*
X01086D01*
Y00279*
X01092Y0028*
X01104Y00285*
X01114Y00293*
X01122Y00303*
X01127Y00315*
X01127Y0032*
G37*
G36*
X01071D02*
X0103D01*
X01031Y00315*
X01035Y00303*
X01043Y00293*
X01054Y00285*
X01066Y0028*
X01071Y00279*
Y0032*
G37*
G36*
X00191Y00576D02*
X00077D01*
Y00435*
X00191*
Y00474*
X00276*
Y00306*
X00277Y00297*
X00281Y00289*
X00286Y00282*
X00293Y00277*
X00301Y00274*
X00309Y00273*
X00318Y00274*
X00326Y00277*
X00333Y00282*
X00338Y00289*
X00341Y00297*
X00343Y00306*
Y00434*
X00413*
Y00575*
X00299*
Y00541*
X00191*
Y00576*
G37*
G36*
X0224Y00289D02*
X02225Y00288D01*
X02202Y00282*
X02181Y00274*
X02162Y00262*
X02144Y00247*
X02129Y00229*
X02117Y0021*
X02108Y00188*
X02103Y00166*
X02102Y00151*
X0224*
Y00289*
G37*
G36*
X00151D02*
Y00151D01*
X00289*
X00288Y00166*
X00282Y00188*
X00274Y0021*
X00262Y00229*
X00247Y00247*
X00229Y00262*
X0021Y00274*
X00188Y00282*
X00166Y00288*
X00151Y00289*
G37*
G36*
X01086Y0018D02*
Y00139D01*
X01127*
X01127Y00144*
X01122Y00156*
X01114Y00166*
X01104Y00174*
X01092Y00179*
X01086Y0018*
G37*
G36*
X01071D02*
X01066Y00179D01*
X01054Y00174*
X01043Y00166*
X01035Y00156*
X01031Y00144*
X0103Y00139*
X01071*
Y0018*
G37*
G36*
X0217Y00362D02*
X02127D01*
Y00333*
X02126Y00333*
X02063Y0027*
X0206Y00266*
X02059Y00261*
Y00103*
X02047Y00091*
X02042Y00093*
Y00111*
X01966*
Y00087*
X0194*
X01937Y00092*
X01931Y001*
X01923Y00106*
X01914Y0011*
X01904Y00111*
X01894Y0011*
X01885Y00106*
X01877Y001*
X01871Y00092*
X01869Y00087*
X0184*
X01837Y00092*
X01831Y001*
X01823Y00106*
X01814Y0011*
X01804Y00111*
X01794Y0011*
X01785Y00106*
X01777Y001*
X01771Y00092*
X01769Y00087*
X0174*
X01737Y00092*
X01731Y001*
X01723Y00106*
X01714Y0011*
X01704Y00111*
X01694Y0011*
X01685Y00106*
X01677Y001*
X01671Y00092*
X01669Y00087*
X0164*
X01637Y00092*
X01631Y001*
X01623Y00106*
X01614Y0011*
X01604Y00111*
X01594Y0011*
X01585Y00106*
X01577Y001*
X01571Y00092*
X01569Y00087*
X0154*
X01537Y00092*
X01531Y001*
X01523Y00106*
X01514Y0011*
X01504Y00111*
X01494Y0011*
X01485Y00106*
X01477Y001*
X01471Y00092*
X01469Y00087*
X0144*
X01437Y00092*
X01431Y001*
X01423Y00106*
X01414Y0011*
X01404Y00111*
X01394Y0011*
X01385Y00106*
X01377Y001*
X01371Y00092*
X01369Y00087*
X0134*
X01337Y00092*
X01331Y001*
X01323Y00106*
X01314Y0011*
X01304Y00111*
X01294Y0011*
X01285Y00106*
X01277Y001*
X01271Y00092*
X01267Y00083*
X01266Y00073*
X01267Y00063*
X01271Y00054*
X01277Y00046*
X01285Y0004*
X01294Y00036*
X01304Y00035*
X01314Y00036*
X01323Y0004*
X01331Y00046*
X01337Y00054*
X0134Y00061*
X01368*
X01371Y00054*
X01377Y00046*
X01385Y0004*
X01394Y00036*
X01404Y00035*
X01414Y00036*
X01423Y0004*
X01431Y00046*
X01437Y00054*
X0144Y00061*
X01468*
X01471Y00054*
X01477Y00046*
X01485Y0004*
X01494Y00036*
X01504Y00035*
X01514Y00036*
X01523Y0004*
X01531Y00046*
X01537Y00054*
X0154Y00061*
X01568*
X01571Y00054*
X01577Y00046*
X01585Y0004*
X01594Y00036*
X01604Y00035*
X01614Y00036*
X01623Y0004*
X01631Y00046*
X01637Y00054*
X0164Y00061*
X01668*
X01671Y00054*
X01677Y00046*
X01685Y0004*
X01694Y00036*
X01704Y00035*
X01714Y00036*
X01723Y0004*
X01731Y00046*
X01737Y00054*
X0174Y00061*
X01768*
X01771Y00054*
X01777Y00046*
X01785Y0004*
X01794Y00036*
X01804Y00035*
X01814Y00036*
X01823Y0004*
X01831Y00046*
X01837Y00054*
X0184Y00061*
X01868*
X01871Y00054*
X01877Y00046*
X01885Y0004*
X01894Y00036*
X01904Y00035*
X01914Y00036*
X01923Y0004*
X01931Y00046*
X01937Y00054*
X0194Y00061*
X01966*
Y00035*
X02042*
Y00061*
X02049*
X02054Y00062*
X02058Y00065*
X02081Y00089*
X02084Y00093*
X02085Y00098*
Y00255*
X02141Y00311*
X0217*
Y00362*
G37*
G36*
X00712Y00178D02*
X00618D01*
Y0017*
X00508*
X005Y00169*
X00492Y00166*
X00491Y00166*
X00467*
Y00109*
X00491*
X00492Y00108*
X005Y00105*
X00508Y00104*
X00618*
Y00084*
X00712*
Y00178*
G37*
G36*
X00941Y00179D02*
X00928Y00177D01*
X00917Y00172*
X00907Y00165*
X009Y00155*
X00895Y00143*
X00893Y00131*
X00895Y00119*
X009Y00107*
X00907Y00097*
X00917Y0009*
X00928Y00085*
X00941Y00083*
X00953Y00085*
X00965Y0009*
X00975Y00097*
X00982Y00107*
X00987Y00119*
X00988Y00131*
X00987Y00143*
X00982Y00155*
X00975Y00165*
X00965Y00172*
X00953Y00177*
X00941Y00179*
G37*
G36*
X00803D02*
X00791Y00177D01*
X00779Y00172*
X00769Y00165*
X00762Y00155*
X00757Y00143*
X00755Y00131*
X00757Y00119*
X00762Y00107*
X00769Y00097*
X00779Y0009*
X00791Y00085*
X00803Y00083*
X00815Y00085*
X00827Y0009*
X00837Y00097*
X00844Y00107*
X00849Y00119*
X00851Y00131*
X00849Y00143*
X00844Y00155*
X00837Y00165*
X00827Y00172*
X00815Y00177*
X00803Y00179*
G37*
G36*
X01127Y00123D02*
X01086D01*
Y00082*
X01092Y00083*
X01104Y00088*
X01114Y00096*
X01122Y00106*
X01127Y00118*
X01127Y00123*
G37*
G36*
X01071D02*
X0103D01*
X01031Y00118*
X01035Y00106*
X01043Y00096*
X01054Y00088*
X01066Y00083*
X01071Y00082*
Y00123*
G37*
%LNpcb1_copper_signal_top-3*%
%LPD*%
G36*
X01454Y0063D02*
X01358Y00534D01*
X01354Y00536*
Y00556*
X01358Y00559*
X01363Y00567*
X01365Y00576*
X01363Y00585*
X01358Y00593*
X0135Y00598*
X01341Y006*
X01332Y00598*
X01325Y00593*
X01321Y00597*
X01326Y00605*
X01328Y00614*
X01326Y00623*
X01322Y0063*
X01324Y00635*
X01452*
X01454Y0063*
G37*
G36*
X016Y00582D02*
X01598Y0058D01*
X01597Y0057*
X01598Y00561*
X01604Y00553*
X01612Y00548*
X01615Y00547*
Y005*
X01657*
X01658*
X01662Y005*
X01671*
Y00435*
X01471*
Y0046*
X01596Y00585*
X016Y00582*
G37*
G36*
X01153Y01307D02*
X01153Y01307D01*
X01149Y01304*
X01027Y01182*
X01025Y01182*
X0102Y01186*
Y01215*
X01117Y01312*
X0115*
X01153Y01307*
G37*
G36*
X00762Y01021D02*
X00781Y01002D01*
Y00817*
X0071Y00746*
X00672*
X00601Y00817*
Y01003*
X00619Y01021*
X00762*
G37*
G54D10*
X01587Y00386D03*
X01961D03*
G54D11*
X02148Y00337D03*
X02203D03*
X00892Y00595D03*
X00837D03*
X00947Y00653D03*
X00892D03*
X00637Y01129D03*
X00692D03*
X00637Y01189D03*
X00692D03*
X00637Y0125D03*
X00692D03*
X01739Y00526D03*
X01684D03*
X00944Y01208D03*
X00999D03*
X00691Y01069D03*
X00636D03*
X0012Y01048D03*
X00175D03*
X0012Y01145D03*
X00175D03*
X0012Y01242D03*
X00175D03*
X0012Y00951D03*
X00175D03*
X01663Y00641D03*
X01718D03*
X01449Y01184D03*
X01394D03*
X01928Y00806D03*
X01983D03*
X01636Y00526D03*
X01581D03*
X01794D03*
X01849D03*
X01116Y01072D03*
X01061D03*
G54D12*
X01933Y00525D03*
X01983D03*
X02033D03*
X02083D03*
X01933Y00739D03*
X01983D03*
X02033D03*
X02083D03*
X01162Y00998D03*
X01112D03*
X01062D03*
X01012D03*
X01162Y00784D03*
X01112D03*
X01062D03*
X01012D03*
G54D13*
X00601Y00707D03*
X00691D03*
X00782D03*
G54D14*
X00691Y00935D03*
G54D15*
X01443Y01082D03*
X01463D03*
X01482D03*
X01502D03*
X01522D03*
X01541D03*
X01561D03*
X01581D03*
X016D03*
X0162D03*
X0164D03*
X0166D03*
Y00749D03*
X0164D03*
X0162D03*
X016D03*
X01581D03*
X01561D03*
X01541D03*
X01522D03*
X01502D03*
X01482D03*
X01463D03*
X01443D03*
G54D16*
X01718Y01024D03*
Y01004D03*
Y00985D03*
Y00965D03*
Y00945D03*
Y00926D03*
Y00906D03*
Y00886D03*
Y00867D03*
Y00847D03*
Y00827D03*
Y00808D03*
X01385D03*
Y00827D03*
Y00847D03*
Y00867D03*
Y00886D03*
Y00906D03*
Y00926D03*
Y00945D03*
Y00965D03*
Y00985D03*
Y01004D03*
Y01024D03*
G54D17*
X01783Y00686D03*
Y00741D03*
X01928Y00854D03*
Y00909D03*
X01991Y01373D03*
Y01428D03*
X01911Y01371D03*
Y01426D03*
X01831Y01373D03*
Y01428D03*
X01266Y00981D03*
Y01036D03*
X01787Y01017D03*
Y01072D03*
X01266Y00918D03*
Y00863D03*
G54D18*
X01123Y00633D03*
X0105D03*
G54D19*
X00508Y00137D03*
Y00253D03*
G54D20*
X00309Y00306D03*
X00412D03*
X00309Y00388D03*
X00412D03*
G54D21*
X01991Y0115D03*
Y01252D03*
X01911Y0115D03*
Y01252D03*
X01831Y0115D03*
Y01252D03*
X00411Y0015D03*
Y00252D03*
X00876Y0076D03*
Y00862D03*
G54D22*
X00134Y00736D03*
Y00506D03*
X00356Y00735D03*
Y00505D03*
G54D23*
X01115Y014D02*
X01116Y01401D01*
X00411Y00377D02*
X00501Y00467D01*
X00411Y00253D02*
X00508D01*
X00411D02*
Y00377D01*
X00664Y00131D02*
X00665Y00131D01*
X00659Y00137D02*
X00665Y00131D01*
X00508Y00137D02*
X00659D01*
X00356Y00508D02*
X0036Y00504D01*
X00301Y00508D02*
X00356D01*
X00156D02*
X00301D01*
X00309Y00306D02*
Y00499D01*
X0058Y00568D02*
X00699D01*
X00782Y0065D02*
Y00704D01*
X00699Y00568D02*
X00782Y0065D01*
X00301Y00508D02*
X00309Y00499D01*
X00501Y00467D02*
Y00819D01*
X00411Y00252D02*
Y00253D01*
X01116Y01401D02*
X01522D01*
X00782Y00704D02*
Y00707D01*
X01522Y01401D02*
X01597Y01476D01*
Y01541*
X00665Y00131D02*
X00665Y00131D01*
X00119Y00506D02*
X00134D01*
G54D24*
X01621Y00569D02*
Y0057D01*
Y00569D02*
X01636Y00554D01*
Y00526D02*
Y00554D01*
X0168Y00526D02*
X01684Y00522D01*
X01636Y00526D02*
X0168D01*
X0162Y00628D02*
Y00749D01*
X01458Y00466D02*
X0162Y00628D01*
X01458Y0033D02*
Y00466D01*
X016Y00638D02*
Y00749D01*
X01437Y00475D02*
X016Y00638D01*
X01437Y00321D02*
Y00475D01*
X01581Y00648D02*
Y00749D01*
X01418Y00486D02*
X01581Y00648D01*
X01418Y00312D02*
Y00486D01*
X01158Y00526D02*
X0128Y00648D01*
X01158Y00296D02*
Y00526D01*
X01114Y00252D02*
X01158Y00296D01*
X00771Y00252D02*
X01114D01*
X00735Y00288D02*
X00771Y00252D01*
X00735Y00288D02*
Y00406D01*
X00933Y00328D02*
X00939Y00334D01*
X0128Y00648D02*
X01461D01*
X01444Y00227D02*
X01551D01*
X01374Y00297D02*
X01444Y00227D01*
X01374Y00297D02*
Y00503D01*
X01551Y00227D02*
X01604Y00174D01*
X01374Y00503D02*
X01541Y0067D01*
Y00749*
X01629Y00249D02*
X01704Y00174D01*
X01451Y00249D02*
X01629D01*
X01395Y00305D02*
X01451Y00249D01*
X01395Y00305D02*
Y00492D01*
X01708Y0027D02*
X01804Y00174D01*
X0146Y0027D02*
X01708D01*
X01418Y00312D02*
X0146Y0027D01*
X01786Y00292D02*
X01904Y00174D01*
X01466Y00292D02*
X01786D01*
X01437Y00321D02*
X01466Y00292D01*
X01865Y00313D02*
X02004Y00174D01*
X01475Y00313D02*
X01865D01*
X01458Y0033D02*
X01475Y00313D01*
X01739Y00522D02*
X01743Y00526D01*
X01866Y00397D02*
Y00406D01*
X01794Y00478D02*
X01866Y00406D01*
X01794Y00478D02*
Y00526D01*
X01395Y00492D02*
X01561Y00658D01*
Y00749*
X01684Y00394D02*
Y00526D01*
X01688Y00685D02*
X01718D01*
X0166Y00714D02*
X01688Y00685D01*
X0166Y00714D02*
Y00749D01*
X01739Y00554D02*
X01754Y00569D01*
X01739Y00526D02*
Y00554D01*
X01502Y00689D02*
Y00749D01*
X01461Y00648D02*
X01502Y00689D01*
X01482Y00701D02*
Y00749D01*
X01451Y0067D02*
X01482Y00701D01*
X01337Y0067D02*
X01451D01*
X01462Y00711D02*
Y00749D01*
X01442Y00691D02*
X01462Y00711D01*
X01343Y00691D02*
X01442D01*
X01149Y00913D02*
X01351Y00711D01*
X0143*
X00735Y00406D02*
X00892Y00562D01*
Y00595*
X00892Y00595D02*
Y00653D01*
X01718Y00685D02*
X01718Y00686D01*
X01746Y01587D02*
X01907Y01426D01*
X01564Y01587D02*
X01746D01*
X01518Y01541D02*
X01564Y01587D01*
X01806Y0161D02*
X01987Y01428D01*
X01506Y0161D02*
X01806D01*
X0144Y01543D02*
X01506Y0161D01*
X01775Y01137D02*
X01799Y01113D01*
X01682Y01137D02*
X01775D01*
X0166Y01114D02*
X01682Y01137D01*
X0166Y01082D02*
Y01114D01*
X01991Y0115D02*
X01991Y0115D01*
X02045*
X01799Y01113D02*
X02318D01*
X02083Y00739D02*
Y00832D01*
X02006Y00909D02*
X02083Y00832D01*
X01928Y00909D02*
X02006D01*
X01864D02*
X01928D01*
X01782Y00827D02*
X01864Y00909D01*
X00629Y01242D02*
X00637Y0125D01*
X00175Y01242D02*
X00629D01*
X00337Y01189D02*
X00637D01*
X00379Y01129D02*
X00637D01*
X00416Y01069D02*
X00636D01*
X00692Y0125D02*
X00796D01*
X00692Y01189D02*
X00828D01*
X00692Y01129D02*
X00857D01*
X01828Y01428D02*
X01831D01*
X01716Y01541D02*
X01828Y01428D01*
X01112Y01325D02*
X01474D01*
X00999Y01212D02*
X01112Y01325D01*
X01474D02*
X01522Y01277D01*
X01465Y01295D02*
X01502Y01258D01*
X01158Y01295D02*
X01465D01*
X01012Y01148D02*
X01158Y01295D01*
X01454Y01266D02*
X01482Y01238D01*
X01286Y01266D02*
X01454D01*
X01164Y01143D02*
X01286Y01266D01*
X00999Y01208D02*
Y01212D01*
X01522Y01082D02*
Y01277D01*
X01012Y00998D02*
Y01148D01*
X01524Y00824D02*
Y00887D01*
X01466Y00945D02*
X01524Y00887D01*
X01385Y00945D02*
X01466D01*
X01479Y00824D02*
Y0089D01*
X01743Y00526D02*
X01794D01*
X01718Y00686D02*
X01783D01*
X0178Y00689D02*
X01783Y00686D01*
X02136Y00983D02*
X02202Y00917D01*
Y00636D02*
Y00917D01*
Y00636D02*
X02316Y00522D01*
X02233Y00698D02*
Y00934D01*
X02159Y01008D02*
X02233Y00934D01*
X01883Y01008D02*
X02159D01*
X01801Y00926D02*
X01883Y01008D01*
X01718Y00926D02*
X01801D01*
X01895Y00983D02*
X02136D01*
X01819Y00906D02*
X01895Y00983D01*
X0225Y01013D02*
X02318D01*
X02231Y01032D02*
X0225Y01013D01*
X01868Y01032D02*
X02231D01*
X01821Y00985D02*
X01868Y01032D01*
X01718Y00985D02*
X01821D01*
X01718Y01068D02*
X01783D01*
X01787Y01072*
X00298Y00951D02*
X00416Y01069D01*
X00175Y00951D02*
X00298D01*
X00297Y01048D02*
X00379Y01129D01*
X00175Y01048D02*
X00297D01*
X00292Y01145D02*
X00337Y01189D01*
X00175Y01145D02*
X00292D01*
X01123Y00633D02*
X01127Y00637D01*
X01401Y01151D02*
Y01176D01*
Y01151D02*
X01412Y0114D01*
X01482Y01082D02*
Y01238D01*
X01502Y01082D02*
Y01258D01*
X01928Y01189D02*
X01991Y01252D01*
X01655Y01189D02*
X01928D01*
X0188Y01221D02*
X01911Y01252D01*
X01648Y01221D02*
X0188D01*
X01581Y01114D02*
X01655Y01189D01*
X01643Y01252D02*
X01831D01*
X01541Y01151D02*
X01643Y01252D01*
X01581Y01082D02*
Y01114D01*
X01561Y01134D02*
X01648Y01221D01*
X01561Y01082D02*
Y01134D01*
X01443Y01082D02*
Y01109D01*
X01412Y0114D02*
X01443Y01109D01*
X01164Y01D02*
Y01143D01*
X00902Y00969D02*
Y01084D01*
X00857Y01129D02*
X00902Y01084D01*
X00922Y00979D02*
Y01095D01*
X00828Y01189D02*
X00922Y01095D01*
X00943Y00989D02*
Y01103D01*
X00796Y0125D02*
X00943Y01103D01*
X00902Y00969D02*
X00998Y00873D01*
X00943Y00989D02*
X01019Y00913D01*
X00998Y00873D02*
X01134D01*
X01009Y00892D02*
X01142D01*
X00922Y00979D02*
X01009Y00892D01*
X01019Y00913D02*
X01149D01*
X01134Y00873D02*
X01337Y0067D01*
X01443Y00723D02*
Y00749D01*
X0143Y00711D02*
X01443Y00723D01*
X01142Y00892D02*
X01343Y00691D01*
X01718Y00827D02*
X01782D01*
X01784Y00741D02*
Y0079D01*
Y0074D02*
Y00741D01*
X01783D02*
X01784D01*
X02013Y00671D02*
X02033Y00691D01*
Y00739*
X01893Y00671D02*
X02013D01*
X01823Y00741D02*
X01893Y00671D01*
X01784Y00741D02*
X01823D01*
X01767Y00808D02*
X01784Y0079D01*
X01718Y00808D02*
X01767D01*
X01266Y01086D02*
X01321Y01141D01*
X00939Y0033D02*
X00941Y00328D01*
X01314Y00867D02*
X01379D01*
X01267D02*
X01314D01*
X0144Y01541D02*
Y01543D01*
X01987Y01428D02*
X01991D01*
X01907Y01426D02*
X01911D01*
X01676Y01541D02*
X01716D01*
X01443Y00926D02*
X01479Y0089D01*
X01385Y00926D02*
X01443D01*
X01684Y00522D02*
Y00526D01*
X00933Y00328D02*
X00941D01*
X02233Y00698D02*
X02309Y00622D01*
X02316*
X01718Y00906D02*
X01819D01*
X01266Y01036D02*
Y01086D01*
X01718Y01024D02*
Y01068D01*
X01911Y0115D02*
X01911Y0115D01*
X01991*
X01911D02*
Y0115D01*
X01831Y0115D02*
X01911D01*
X01831D02*
X01831D01*
X01831Y01252D02*
Y01373D01*
X01911Y01252D02*
Y01371D01*
X01991Y01252D02*
Y01373D01*
X01541Y01082D02*
Y01151D01*
X01385Y00906D02*
X01385Y00906D01*
X01345Y00906D02*
X01385D01*
X0127Y00981D02*
X01345Y00906D01*
X01266Y00981D02*
X0127D01*
X01482Y00749D02*
X01482Y00749D01*
X01462Y00749D02*
X01463Y00749D01*
X01443Y00749D02*
X01443Y00749D01*
X01162Y00998D02*
X01164Y01D01*
G54D25*
X01127Y00575D02*
Y00637D01*
X00939Y00387D02*
X01127Y00575D01*
X00939Y0033D02*
Y00387D01*
X00805Y00384D02*
X01048Y00627D01*
X00805Y0033D02*
Y00384D01*
X00803Y00328D02*
X00805Y0033D01*
X01127Y00637D02*
Y00715D01*
X01048Y00627D02*
Y00713D01*
X01112Y0073D02*
X01127Y00715D01*
X01112Y0073D02*
Y00784D01*
X01048Y00713D02*
X01062Y00726D01*
Y00784*
G54D26*
X00782Y00704D02*
X0084D01*
X00691Y00935D02*
X00829D01*
X0084Y00704D02*
X00876Y00741D01*
Y0076*
X00829Y00935D02*
X00876Y00888D01*
Y00862D02*
Y00888D01*
G54D27*
X00501Y00467D02*
X00708Y00462D01*
X00837Y00591*
X01331Y00827D02*
X01385D01*
X01304Y00801D02*
X01331Y00827D01*
X01304Y00174D02*
Y00614D01*
X01341Y00529D02*
Y00576D01*
X0133Y00519D02*
X01341Y00529D01*
X0133Y00248D02*
Y00519D01*
X01304Y00074D02*
X01404D01*
X01504*
X01604*
X01704*
X01804*
X01904*
X02004Y00074D02*
X02049D01*
X01904Y00074D02*
X02004D01*
X02049Y00074D02*
X02072Y00098D01*
Y00261*
X02135Y00324*
X02139*
X02148Y00333*
Y00337*
X02203D02*
X02322D01*
X02372Y00387*
Y00666*
X02316Y00722D02*
X02372Y00666D01*
X0133Y00248D02*
X01404Y00174D01*
X01352Y0051D02*
X01522Y00679D01*
X01352Y00291D02*
Y0051D01*
Y00291D02*
X01437Y00206D01*
X01472D02*
X01504Y00174D01*
X01437Y00206D02*
X01472D01*
X01718Y00685D02*
X01718Y00685D01*
Y00641D02*
Y00685D01*
X01522Y00679D02*
Y00749D01*
X01341Y0077D02*
Y00796D01*
X01351Y00807D02*
X0136D01*
X01341Y00796D02*
X01351Y00807D01*
X0136D02*
X0136Y00807D01*
X01385*
X01385Y00808*
X00837Y00591D02*
Y00595D01*
X01928Y00806D02*
Y00854D01*
Y00802D02*
Y00806D01*
G54D28*
X00691Y01001D02*
Y01069D01*
X01061Y01072D02*
Y01141D01*
Y01072D02*
X01062Y01071D01*
Y00998D02*
Y01071D01*
X01928Y00802D02*
X01933Y00797D01*
Y00739D02*
Y00797D01*
X01873Y00806D02*
X01928D01*
G54D29*
X01504Y00073D03*
X01604D03*
X01704D03*
X01904D03*
X01804D03*
X01404D03*
X01304D03*
X01504Y00174D03*
X01604D03*
X01704D03*
X01904D03*
X01804D03*
X01404D03*
X01304D03*
X02316Y00522D03*
Y00622D03*
Y00422D03*
X02318Y01113D03*
Y01013D03*
Y01213D03*
G54D30*
X02004Y00073D03*
Y00174D03*
G54D31*
X01361Y01541D03*
X0144D03*
X01518D03*
X01597D03*
G54D32*
X01676Y01541D03*
G54D33*
X00941Y00131D03*
X00803D03*
Y00328D03*
X00941D03*
X01079D03*
Y00131D03*
G54D34*
X00665Y00131D03*
Y00328D03*
G54D35*
X02316Y00722D03*
X02318Y00913D03*
G54D36*
X00143Y00143D03*
Y015D03*
X02248Y00143D03*
Y015D03*
G54D37*
X00501Y00819D03*
X0058Y00568D03*
X00245Y00508D03*
G54D38*
X01621Y0057D03*
X01304Y00801D03*
Y00614D03*
X01341Y00576D03*
Y0077D03*
X01754Y00569D03*
X02045Y0115D03*
X01115Y01401D03*
X00906Y01208D03*
X01462Y01033D03*
X01118Y01193D03*
X01061Y01141D03*
X00578Y00638D03*
X00627D03*
X01524Y00824D03*
X01479Y00824D03*
X0164Y008D03*
X01718Y00686D03*
X0069Y00835D03*
X0064D03*
X00742D03*
X0069Y0087D03*
X0064D03*
X00742D03*
X00741Y01001D03*
X00639D03*
X00689D03*
X00277Y00798D03*
X00213D03*
X00983Y00651D03*
X0012Y00998D03*
Y01097D03*
Y01194D03*
X01112Y0095D03*
X01412Y0114D03*
X01431Y00887D03*
X02024Y00806D03*
X01873D03*
X01321Y01141D03*
X01227Y00919D03*
X01314Y00867D03*
X01438Y01233D03*
X00602Y00638D03*
X01667Y01005D03*
X02085Y00472D03*
X01718Y01068D03*
X00245Y00798D03*
X01862Y0057D03*
X01582Y00484D03*
M02*